<svg width="17" height="22" viewBox="0 0 17 22" fill="none" xmlns="http://www.w3.org/2000/svg">
<path d="M16.2306 12.4257C16.2306 14.4592 16.2372 16.4926 16.2306 18.5261C16.224 19.7905 15.578 20.8109 14.5365 21.2028C14.2201 21.3211 13.8905 21.3507 13.561 21.3507C10.186 21.3507 6.81772 21.3581 3.4428 21.3507C1.7949 21.3507 0.766602 20.1898 0.766602 18.3486C0.766602 13.2243 0.766602 8.10005 0.766602 2.96838C0.766602 1.63001 1.37962 0.624375 2.43428 0.202898C2.75727 0.0771939 3.10004 0.0476165 3.4428 0.0402222C5.80261 0.0402222 8.169 0.0476165 10.5288 0.0402222C11.1352 0.0402222 11.6296 0.262052 12.0581 0.750079C13.2314 2.08845 14.4113 3.41204 15.5978 4.72084C16.0328 5.20147 16.2372 5.74865 16.2306 6.43633C16.224 8.4328 16.2306 10.4293 16.2306 12.4257ZM8.49858 10.3923C9.23684 10.3923 9.96851 10.3923 10.7068 10.3923C11.1484 10.3923 11.5835 10.3997 12.0251 10.3849C12.3942 10.3701 12.6315 10.0891 12.6315 9.71202C12.6315 9.33491 12.3876 9.05393 12.0317 9.02435C11.9526 9.01695 11.8801 9.01695 11.801 9.01695C9.60597 9.01695 7.41096 9.01695 5.21595 9.01695C5.0973 9.01695 4.97206 9.00956 4.85341 9.03914C4.44473 9.14266 4.24698 9.65287 4.45791 10.0522C4.60293 10.3331 4.84023 10.3923 5.11048 10.3923C6.23765 10.3923 7.36482 10.3923 8.49858 10.3923ZM8.53813 12.4775C7.54939 12.4775 6.56064 12.4775 5.57849 12.4775C5.36756 12.4775 5.16322 12.4701 4.95229 12.4849C4.60952 12.5145 4.37881 12.7881 4.37881 13.1578C4.37881 13.5053 4.59634 13.7863 4.91274 13.8381C5.01161 13.8529 5.11048 13.8529 5.20936 13.8529C7.40437 13.8529 9.59938 13.8529 11.7944 13.8529C11.9262 13.8529 12.0581 13.8529 12.1833 13.8159C12.4667 13.7345 12.6447 13.4462 12.6315 13.1282C12.6183 12.7881 12.4008 12.5293 12.0976 12.4923C11.979 12.4775 11.8537 12.4775 11.7351 12.4775C10.6606 12.4775 9.59938 12.4775 8.53813 12.4775ZM14.3585 6.22929C13.1655 4.89091 11.946 3.52296 10.7463 2.16979C10.7463 3.13845 10.7397 4.18105 10.7463 5.22366C10.7529 5.8152 11.0429 6.19971 11.5637 6.2145C12.5327 6.25147 13.495 6.22929 14.3585 6.22929ZM6.94955 17.3282C7.57575 17.3282 8.20196 17.3356 8.82816 17.3282C9.32913 17.3208 9.62575 16.9289 9.52687 16.4557C9.45437 16.1155 9.19729 15.9085 8.7952 15.9085C7.57575 15.9011 6.3563 15.9011 5.14344 15.9085C4.67544 15.9085 4.37881 16.1969 4.37881 16.6183C4.37881 17.0398 4.68203 17.3282 5.14344 17.3282C5.74328 17.3282 6.34971 17.3282 6.94955 17.3282Z" fill="#ADADAD"/>
</svg>
