<svg width="21" height="21" viewBox="0 0 21 21" fill="none" xmlns="http://www.w3.org/2000/svg">
<path d="M5.37784 0.529869C5.03774 0.622623 4.73298 0.768379 4.4768 0.967136C3.95119 1.36907 3.54043 1.40441 3.02366 1.09081C2.49805 0.772795 2.01661 0.733044 1.49543 0.971554C1.15091 1.12173 0.828482 1.46624 0.700394 1.80634C0.60764 2.05368 0.60764 2.07135 0.60764 9.84058C0.60764 18.3872 0.589973 17.7777 0.872651 18.1973C1.03607 18.4269 1.34084 18.6654 1.62351 18.7759C1.80902 18.851 2.1447 18.8554 6.71614 18.8686C9.406 18.873 11.6056 18.873 11.6056 18.8642C11.6056 18.851 11.5128 18.7096 11.398 18.5418C11.0049 17.9543 10.6957 17.1637 10.5853 16.4305C10.5014 15.9093 10.5588 14.8714 10.6913 14.359C10.9431 13.4138 11.3538 12.6939 12.0473 11.9828C12.5022 11.5234 12.9704 11.1745 13.4827 10.9139C14.1144 10.6003 14.9712 10.3971 15.6912 10.3927L16.1549 10.3883V6.21877C16.1549 2.11552 16.1549 2.04926 16.0622 1.80634C15.8678 1.28515 15.3334 0.878799 14.7681 0.825798C14.397 0.790462 14.1055 0.865549 13.7389 1.09081C13.4916 1.24098 13.39 1.27632 13.1647 1.28957C12.8556 1.31165 12.6303 1.2189 12.1489 0.883217C12.0031 0.777212 11.7513 0.644707 11.5968 0.591705C11.2567 0.47245 10.5455 0.423864 10.1878 0.498951C9.86977 0.565205 9.43692 0.772795 9.13216 1.00247C8.60213 1.39999 8.14278 1.39999 7.61718 0.998055C7.12249 0.622623 6.63664 0.4592 6.01386 0.463615C5.79744 0.463615 5.51034 0.494534 5.37784 0.529869ZM4.95382 5.39723C5.39992 5.65783 5.51476 6.25852 5.19233 6.62512C4.77273 7.10214 4.0837 7.0138 3.82752 6.44403C3.50509 5.74175 4.29129 5.00855 4.95382 5.39723ZM12.7186 5.56066C12.7849 5.60924 12.8776 5.72408 12.9351 5.81684C13.1073 6.12601 12.9792 6.5412 12.6524 6.72229C12.5243 6.79296 12.2725 6.79738 9.7726 6.81063L7.03415 6.81946L6.83539 6.72229C6.34954 6.47495 6.29654 5.861 6.74264 5.55624L6.90165 5.45024L9.75051 5.45907C12.5199 5.47232 12.6038 5.47674 12.7186 5.56066ZM5.04215 9.12947C5.55451 9.52257 5.46617 10.2602 4.8699 10.534C4.65347 10.6356 4.49888 10.64 4.28246 10.5517C3.82752 10.3574 3.62876 9.88034 3.82752 9.44748C3.97769 9.12064 4.22504 8.97488 4.6093 8.99697C4.82573 9.0058 4.91407 9.03672 5.04215 9.12947ZM12.7186 9.22664C12.9174 9.37681 13.0322 9.62416 13.0057 9.85383C12.9792 10.1056 12.8688 10.2602 12.6215 10.3839L12.4271 10.4854H9.72843H7.02974L6.83539 10.3839C6.55272 10.2425 6.42463 10.0349 6.44671 9.75225C6.4688 9.48724 6.59247 9.29289 6.80006 9.19131C6.93257 9.12505 7.23733 9.11622 9.7726 9.12947C12.5199 9.1383 12.6038 9.14272 12.7186 9.22664ZM5.04215 12.6629C5.55451 13.056 5.46617 13.7937 4.8699 14.0675C4.65347 14.1691 4.49888 14.1735 4.28246 14.0852C3.82752 13.8908 3.62876 13.4138 3.82752 12.981C3.97769 12.6541 4.22504 12.5084 4.6093 12.5304C4.82573 12.5393 4.91407 12.5702 5.04215 12.6629ZM9.4325 12.738C9.86094 12.9986 9.85652 13.5861 9.42808 13.9041C9.30883 13.9924 9.23816 13.9968 8.16928 14.0101C7.06065 14.0233 7.02974 14.0189 6.83539 13.9218C6.5483 13.776 6.42463 13.5728 6.44671 13.2857C6.4688 13.0207 6.59247 12.8264 6.80006 12.7248C6.92373 12.6629 7.12691 12.6497 8.11628 12.6497C9.20724 12.6497 9.29558 12.6541 9.4325 12.738Z" fill="#ADADAD"/>
<path d="M14.8289 11.1436C13.9234 11.3424 13.2255 11.7266 12.5498 12.4024C11.8607 13.0915 11.4809 13.7893 11.2866 14.7257C11.1585 15.3352 11.1938 16.3467 11.3572 16.9032C11.6002 17.7247 11.9888 18.3696 12.5851 18.9482C13.1681 19.518 13.7556 19.8581 14.5506 20.0966C15.1071 20.26 16.1186 20.2953 16.7281 20.1672C17.6645 19.9729 18.3623 19.5931 19.0514 18.904C19.7404 18.215 20.1202 17.5171 20.3146 16.5808C20.4427 15.9712 20.4073 14.9598 20.2439 14.4033C20.0054 13.6082 19.6653 13.0208 19.0955 12.4378C18.5169 11.8415 17.8721 11.4572 17.0505 11.2099C16.5161 11.0509 15.4031 11.0155 14.8289 11.1436ZM17.4481 14.0808C17.7749 14.2177 17.9427 14.5755 17.8588 14.9333C17.8367 15.0128 17.4657 15.4191 16.7811 16.1082C15.3191 17.5746 15.3633 17.5657 14.4402 16.6558C14.1133 16.3334 13.8218 16.0198 13.7865 15.9536C13.5877 15.5693 13.8572 15.0614 14.2988 15.0039C14.5727 14.9642 14.6919 15.0216 15.0144 15.3308L15.3147 15.6267L16.0567 14.8891C16.9269 14.0234 17.0947 13.9262 17.4481 14.0808Z" fill="#ADADAD"/>
</svg>
