<svg width="17" height="20" viewBox="0 0 17 20" fill="none" xmlns="http://www.w3.org/2000/svg">
<path d="M4.52472 0.639993C4.39637 0.708447 4.30653 0.798294 4.23807 0.926645C4.14395 1.09778 4.13967 1.15768 4.13967 1.885V2.66367L3.75889 2.71501C2.71497 2.8562 1.778 3.35249 1.2047 4.06698C0.764025 4.61461 0.481652 5.32055 0.3533 6.15911C0.297681 6.557 0.297681 6.63401 0.349022 6.76236C0.477373 7.0704 -0.271344 7.04473 8.51218 7.04473H16.4186L16.5555 6.92066C16.6924 6.80087 16.6967 6.78375 16.6882 6.50566C16.6711 5.94519 16.4785 5.23498 16.1919 4.66595C15.6614 3.61775 14.5746 2.8947 13.2484 2.71501L12.8676 2.66367V1.885C12.8676 1.15768 12.8633 1.09778 12.7692 0.926645C12.6579 0.712726 12.3841 0.541591 12.1659 0.541591C11.9862 0.541591 11.6739 0.704169 11.5669 0.853912C11.4857 0.96515 11.4771 1.04644 11.4643 1.7866L11.4514 2.59521H8.50362H5.55582L5.54298 1.79088C5.53015 1.02505 5.52587 0.986542 5.42746 0.845356C5.31195 0.682777 5.04241 0.545869 4.84133 0.541591C4.76859 0.541591 4.62741 0.584374 4.52472 0.639993Z" fill="#ADADAD"/>
<path d="M1.01639 8.4096C0.716901 8.47377 0.498703 8.64063 0.357517 8.91445C0.297619 9.03852 0.289062 9.3979 0.289062 12.3628C0.289062 16.0251 0.293341 16.0893 0.562879 16.8936C1.08056 18.4296 2.28279 19.3066 4.11394 19.4906C4.7557 19.5548 12.2514 19.5548 12.8932 19.4906C14.6473 19.3152 15.8324 18.4937 16.3801 17.0819C16.4528 16.8936 16.5512 16.577 16.6025 16.3759C16.6881 16.0208 16.6924 15.8968 16.7052 12.534C16.7181 9.36368 16.7138 9.04708 16.6496 8.91872C16.5512 8.72192 16.4228 8.58929 16.226 8.48661L16.0549 8.39248L8.61052 8.3882C4.51611 8.38393 1.09768 8.39248 1.01639 8.4096ZM5.62849 11.3916C5.95364 11.5243 6.18895 11.8665 6.19323 12.2002C6.19323 12.2944 6.14617 12.4698 6.09055 12.5896C5.94081 12.9147 5.66271 13.0859 5.28622 13.0816C4.81131 13.0816 4.4391 12.6965 4.4391 12.2174C4.4391 11.5799 5.05518 11.152 5.62849 11.3916ZM8.8715 11.4045C9.15387 11.5328 9.40202 11.9093 9.40202 12.2045C9.40202 12.504 9.17954 12.8463 8.88434 12.996C8.38377 13.2484 7.72062 12.9062 7.62649 12.3414C7.54092 11.8323 7.97732 11.3232 8.50356 11.3232C8.61052 11.3232 8.7731 11.3617 8.8715 11.4045ZM11.999 11.3745C12.5937 11.6355 12.7606 12.3457 12.337 12.8121C11.8108 13.3939 10.8139 12.9832 10.8139 12.1917C10.8139 11.6227 11.4899 11.1563 11.999 11.3745ZM5.80818 14.6774C6.01782 14.8143 6.19323 15.1481 6.19323 15.409C6.18895 15.8668 5.76539 16.2861 5.30761 16.2861C5.0509 16.2861 4.72147 16.1064 4.58456 15.901C4.35353 15.5502 4.40487 15.0368 4.70435 14.7587C4.98245 14.4977 5.48302 14.4592 5.80818 14.6774ZM8.91428 14.6389C9.41913 14.8871 9.54321 15.5203 9.17527 15.9652C8.72604 16.5129 7.84041 16.316 7.64788 15.623C7.49814 15.0839 7.93026 14.532 8.50356 14.532C8.62763 14.532 8.77738 14.5705 8.91428 14.6389ZM12.0461 14.5961C12.4054 14.7502 12.5851 15.0496 12.5595 15.4561C12.5381 15.8112 12.3883 16.0422 12.0846 16.1834C11.8279 16.3032 11.6054 16.3118 11.3786 16.2176C10.8224 15.9866 10.647 15.3363 11.0107 14.8486C11.2203 14.5662 11.6952 14.4507 12.0461 14.5961Z" fill="#ADADAD"/>
</svg>
