<svg width="16" height="15" viewBox="0 0 16 15" fill="none" xmlns="http://www.w3.org/2000/svg">
<path d="M5.68098 0.626178C5.08686 0.817829 4.77543 1.10051 4.16694 1.99648C3.89384 2.40853 3.6974 2.64809 3.5872 2.71038C3.45304 2.78704 3.29014 2.81099 2.67686 2.83495C1.87192 2.87328 1.67069 2.92119 1.27781 3.17513C0.999914 3.35241 0.669317 3.69738 0.506414 3.98485C0.22373 4.47356 0.228521 4.36816 0.228521 8.58447C0.228521 11.9719 0.238103 12.4798 0.305181 12.7097C0.511205 13.4189 1.11011 14.0226 1.81443 14.243C2.09232 14.3292 2.34626 14.334 7.88975 14.334C13.0308 14.334 13.7016 14.3244 13.9363 14.2573C14.6454 14.0513 15.2491 13.4524 15.4695 12.7481C15.5558 12.4702 15.5606 12.2498 15.5606 8.58926C15.5606 4.36816 15.5654 4.47356 15.2827 3.98485C15.1198 3.69738 14.7892 3.35241 14.5113 3.17513C14.1184 2.92119 13.9172 2.87328 13.1122 2.83495C12.4989 2.81099 12.336 2.78704 12.2019 2.71038C12.0917 2.64809 11.9 2.40853 11.6221 1.99648C11.0137 1.10051 10.7549 0.86095 10.1512 0.650134C9.8398 0.539935 9.80626 0.535144 7.89454 0.539935C6.14573 0.539935 5.92533 0.549518 5.68098 0.626178ZM8.90071 5.34557C9.75355 5.63784 10.4627 6.35653 10.7741 7.24291C10.8699 7.50643 10.8891 7.65017 10.8891 8.17721C10.8891 8.70904 10.8699 8.85278 10.7741 9.14984C10.4866 10.0314 9.7248 10.7932 8.848 11.0807C8.54615 11.1765 8.40242 11.1957 7.87059 11.1957C7.34355 11.1957 7.19981 11.1765 6.93629 11.0807C6.03553 10.7645 5.30247 10.0218 5.01499 9.15463C4.91438 8.84799 4.9 8.71383 4.9 8.15325C4.90479 7.56393 4.91438 7.47769 5.03416 7.17104C5.66181 5.58035 7.32438 4.79458 8.90071 5.34557Z" fill="black" fill-opacity="0.2"/>
<path d="M7.28081 6.76878C6.3034 7.14729 6.03509 8.54155 6.79211 9.30336C7.55871 10.0652 8.95776 9.79207 9.32668 8.80028C9.55187 8.20616 9.41772 7.5258 8.99609 7.09938C8.56966 6.67775 7.87014 6.54359 7.28081 6.76878Z" fill="black" fill-opacity="0.2"/>
</svg>
