<svg width="25" height="21" viewBox="0 0 25 21" fill="none" xmlns="http://www.w3.org/2000/svg">
<path d="M12.3589 20.2584C11.0649 20.2843 9.74504 20.2196 8.45102 19.9349C7.88166 19.8055 7.33817 19.6244 6.83351 19.3526C5.33245 18.5503 4.87955 17.0104 5.72066 15.5353C6.23826 14.6295 7.01467 13.9954 7.92048 13.5166C9.22743 12.8178 10.625 12.4943 12.1001 12.4555C13.6012 12.4167 15.0634 12.6496 16.4351 13.2707C17.5479 13.7754 18.5314 14.4612 19.1396 15.5612C19.6313 16.467 19.7478 17.3987 19.2043 18.3303C18.842 18.9773 18.2208 19.3267 17.5609 19.5855C16.7457 19.909 15.8916 20.0514 15.0246 20.1549C14.1576 20.2455 13.2648 20.2714 12.3589 20.2584Z" fill="url(#paint0_linear_6425_1394)"/>
<path d="M12.4368 0.886948C15.0636 0.886948 17.1858 3.00913 17.1858 5.62304C17.1858 8.23695 15.0507 10.3979 12.4497 10.385C9.65465 10.3591 7.66187 8.10754 7.68775 5.59716C7.70069 2.99619 9.82287 0.886948 12.4368 0.886948Z" fill="url(#paint1_linear_6425_1394)"/>
<path d="M18.6994 9.49195C18.3371 9.50489 17.9748 9.42725 17.6254 9.33667C17.4701 9.28491 17.4184 9.23315 17.5219 9.07787C18.2077 8.10736 18.5441 7.02039 18.57 5.84283C18.6088 4.61352 18.3112 3.46185 17.6772 2.4137C17.5089 2.14195 17.5219 2.11607 17.8195 2.05137C20.0193 1.53377 22.1674 3.02188 22.4521 5.27347C22.7497 7.49917 20.9769 9.49195 18.6994 9.49195Z" fill="url(#paint2_linear_6425_1394)"/>
<path d="M6.18627 9.492C4.19349 9.492 2.52421 7.95212 2.38187 6.02404C2.23953 4.00538 3.66295 2.24552 5.64279 1.97378C6.14745 1.90908 6.62624 1.9479 7.11796 2.06436C7.29912 2.10318 7.325 2.18082 7.22148 2.3361C6.53566 3.42308 6.23803 4.61357 6.28979 5.89464C6.32861 7.02043 6.678 8.05564 7.29912 9.01321C7.46735 9.27202 7.46735 9.28496 7.16972 9.3626C6.83328 9.45318 6.49684 9.50494 6.18627 9.492Z" fill="url(#paint3_linear_6425_1394)"/>
<path d="M18.7384 10.8376C20.3171 10.8765 21.8053 11.2258 23.0734 12.2352C23.6428 12.6881 24.0957 13.2445 24.2509 13.9821C24.458 14.9655 24.1086 15.7678 23.2416 16.2725C22.5946 16.6607 21.87 16.8289 21.1324 16.9454C20.9641 16.9713 20.9512 16.8807 20.9383 16.7513C20.8477 15.7678 20.4854 14.8879 19.8642 14.1115C18.9067 12.921 17.6644 12.1705 16.241 11.6658C16.1698 11.6444 16.0986 11.6231 16.0295 11.5995C15.9189 11.5619 15.7363 11.5627 15.7363 11.4458C15.7363 11.3811 15.814 11.3682 15.8528 11.3552C16.3704 11.1482 16.9009 11.0059 17.4444 10.9153C17.8973 10.8765 18.3114 10.8376 18.7384 10.8376Z" fill="url(#paint4_linear_6425_1394)"/>
<path d="M8.81261 11.3033C8.97156 11.3629 8.95399 11.5444 8.79387 11.6008C8.68053 11.6407 8.57188 11.679 8.46322 11.7174C7.03981 12.2479 5.78462 13.0373 4.86587 14.2666C4.30944 15.0042 3.973 15.8324 3.92124 16.7511C3.92124 16.8546 3.9083 16.9711 3.75301 16.9452C2.91191 16.8158 2.08374 16.6346 1.38497 16.117C0.530921 15.483 0.310938 14.4607 0.789724 13.4514C1.19087 12.6361 1.86375 12.0797 2.66604 11.6656C3.973 10.9798 5.37053 10.7469 6.84571 10.8763C7.51859 10.941 8.17854 11.0833 8.81261 11.3033Z" fill="url(#paint5_linear_6425_1394)"/>
<defs>
<linearGradient id="paint0_linear_6425_1394" x1="12.4324" y1="12.4514" x2="12.4324" y2="20.2636" gradientUnits="userSpaceOnUse">
<stop stop-color="#FF295D"/>
<stop offset="0.485577" stop-color="#E31B95"/>
<stop offset="1" stop-color="#C817AE"/>
</linearGradient>
<linearGradient id="paint1_linear_6425_1394" x1="12.4367" y1="0.886948" x2="12.4367" y2="10.3851" gradientUnits="userSpaceOnUse">
<stop stop-color="#FF295D"/>
<stop offset="0.485577" stop-color="#E31B95"/>
<stop offset="1" stop-color="#C817AE"/>
</linearGradient>
<linearGradient id="paint2_linear_6425_1394" x1="19.9764" y1="1.94835" x2="19.9764" y2="9.49337" gradientUnits="userSpaceOnUse">
<stop stop-color="#FF295D"/>
<stop offset="0.485577" stop-color="#E31B95"/>
<stop offset="1" stop-color="#C817AE"/>
</linearGradient>
<linearGradient id="paint3_linear_6425_1394" x1="4.8923" y1="1.94261" x2="4.8923" y2="9.49397" gradientUnits="userSpaceOnUse">
<stop stop-color="#FF295D"/>
<stop offset="0.485577" stop-color="#E31B95"/>
<stop offset="1" stop-color="#C817AE"/>
</linearGradient>
<linearGradient id="paint4_linear_6425_1394" x1="20.0226" y1="10.8376" x2="20.0226" y2="16.9498" gradientUnits="userSpaceOnUse">
<stop stop-color="#FF295D"/>
<stop offset="0.485577" stop-color="#E31B95"/>
<stop offset="1" stop-color="#C817AE"/>
</linearGradient>
<linearGradient id="paint5_linear_6425_1394" x1="4.8515" y1="10.8421" x2="4.8515" y2="16.9489" gradientUnits="userSpaceOnUse">
<stop stop-color="#FF295D"/>
<stop offset="0.485577" stop-color="#E31B95"/>
<stop offset="1" stop-color="#C817AE"/>
</linearGradient>
</defs>
</svg>
