<svg width="26" height="25" viewBox="0 0 26 25" fill="none" xmlns="http://www.w3.org/2000/svg">
<path d="M1.39438 0.741507C0.846917 0.931223 0.602996 1.63046 0.895701 2.19419C1.03663 2.47606 1.21551 2.61699 1.50821 2.68203C1.62204 2.70913 2.39717 2.73624 3.2265 2.73624H4.72797V9.30584C4.72797 14.813 4.74423 15.9405 4.80927 16.2494C5.04235 17.3444 5.86626 18.2008 6.97746 18.4827C7.45446 18.6019 20.3714 18.6073 20.843 18.4827C21.6398 18.2767 22.4746 17.5991 22.816 16.8836C22.9082 16.6885 23.5641 14.6016 24.2741 12.2491C25.6618 7.64175 25.6835 7.56045 25.548 6.82868C25.3528 5.78254 24.453 4.87732 23.4069 4.69302C23.1846 4.64966 20.4852 4.6334 14.9347 4.6334H6.78774V3.12651C6.78774 1.49495 6.7498 1.19141 6.50588 0.958326C6.20775 0.681883 6.14271 0.676462 3.76854 0.681883C2.38091 0.681883 1.49737 0.703564 1.39438 0.741507Z" fill="white"/>
<path d="M8.03992 20.6183C7.67133 20.7593 7.34068 21.014 7.09134 21.3501C6.82031 21.7187 6.71732 22.1089 6.74443 22.651C6.76069 23.0196 6.79863 23.1443 6.94498 23.4315C7.73637 24.9059 9.82867 24.868 10.5333 23.3719C11.0158 22.3312 10.5713 21.1387 9.5197 20.6671C9.14027 20.4991 8.43561 20.472 8.03992 20.6183Z" fill="white"/>
<path d="M20.03 20.5912C18.9892 20.9273 18.4147 21.9626 18.6803 23.0088C19.1302 24.7975 21.5965 25.0577 22.4095 23.399C22.5776 23.063 22.5884 22.9979 22.5884 22.4938C22.5884 21.9897 22.5776 21.9301 22.415 21.6265C22.209 21.2309 21.8729 20.9002 21.4772 20.6996C21.2333 20.5804 21.0924 20.5479 20.7184 20.5316C20.4311 20.5208 20.1709 20.5425 20.03 20.5912Z" fill="white"/>
</svg>
