<svg width="19" height="20" viewBox="0 0 19 20" fill="none" xmlns="http://www.w3.org/2000/svg">
<path d="M9.49648 19.1191C7.69167 19.1191 5.89327 19.1259 4.08847 19.1191C2.75087 19.1123 1.75886 18.4779 1.17646 17.1749C0.978063 16.7247 0.920463 16.2403 0.914062 15.7492C0.914062 13.3002 0.914062 10.858 0.914062 8.41587C0.914062 7.14704 1.40046 6.17154 2.39246 5.45526C4.15247 4.19325 5.89327 2.90395 7.64687 1.6283C8.90127 0.71419 10.1493 0.741477 11.3973 1.65558C13.1317 2.93806 14.8725 4.20689 16.6261 5.4689C17.5861 6.16471 18.0725 7.11293 18.0789 8.34083C18.0853 10.8171 18.0917 13.3002 18.0789 15.7765C18.0661 17.3523 17.2149 18.5665 15.8581 18.9895C15.5317 19.0918 15.1861 19.1191 14.8469 19.1191C13.0613 19.1259 11.2757 19.1259 9.49648 19.1191ZM9.50928 15.831C10.1813 15.831 10.8533 15.8379 11.5189 15.831C11.8325 15.831 12.0309 15.6673 12.0053 15.4286C11.9797 15.1148 11.7749 15.0329 11.5061 15.0329C10.1621 15.0329 8.82447 15.0329 7.48047 15.0329C7.21807 15.0329 7.00687 15.1148 6.97487 15.4217C6.94927 15.6741 7.15407 15.831 7.48687 15.831C8.16527 15.8379 8.83727 15.8379 9.50928 15.831Z" fill="#ADADAD"/>
</svg>
