<svg width="23" height="23" viewBox="0 0 23 23" fill="none" xmlns="http://www.w3.org/2000/svg">
<path d="M11.6316 22.7195C5.46735 22.7001 0.494037 17.7219 0.512257 11.5893C0.530476 5.42985 5.5208 0.451672 11.6504 0.477179C17.8135 0.502686 22.7838 5.49179 22.7546 11.6227C22.7249 17.7736 17.7473 22.739 11.6316 22.7195ZM7.20246 10.504C7.00326 10.5058 6.84475 10.5167 6.6911 10.5829C5.82081 10.9576 5.62586 12.0217 6.31942 12.7207C7.21035 13.6183 8.11951 14.4977 9.01834 15.388C9.73011 16.0931 10.4443 16.0876 11.1524 15.3655C11.7264 14.7807 12.2978 14.1928 12.8736 13.6098C14.2528 12.2124 15.6369 10.8204 17.0112 9.4187C17.3859 9.0367 17.4679 8.43181 17.2408 7.98179C17.0046 7.51234 16.4689 7.24026 15.9211 7.30585C15.5695 7.34775 15.3059 7.53724 15.0648 7.78138C13.4797 9.38773 11.8897 10.9886 10.3083 12.598C10.1346 12.7747 10.0259 12.7869 9.84611 12.6047C9.27098 12.0211 8.67945 11.4538 8.09339 10.8811C7.83528 10.6297 7.53466 10.4821 7.20246 10.504Z" fill="url(#paint0_linear_6425_1382)"/>
<defs>
<linearGradient id="paint0_linear_6425_1382" x1="11.6335" y1="0.477081" x2="11.6335" y2="22.7196" gradientUnits="userSpaceOnUse">
<stop stop-color="#FF295D"/>
<stop offset="0.485577" stop-color="#E31B95"/>
<stop offset="1" stop-color="#C817AE"/>
</linearGradient>
</defs>
</svg>
