<svg width="17" height="22" viewBox="0 0 17 22" fill="none" xmlns="http://www.w3.org/2000/svg">
<path d="M3.63479 0.152545C3.38837 0.233267 3.06973 0.471184 2.88705 0.709102C2.71711 0.930025 2.5769 1.37187 2.5769 1.67352C2.5769 1.98791 2.71711 2.40002 2.90404 2.63793C2.99326 2.74839 3.43935 3.13501 3.89395 3.50038C4.43039 3.92679 5.09545 4.15891 5.78071 4.15891H8.39738H11.0141C11.6993 4.15891 12.3644 3.92679 12.9008 3.50038C13.3554 3.13501 13.8015 2.74839 13.8907 2.63793C14.2221 2.21733 14.3028 1.59704 14.0904 1.03624C13.9714 0.730345 13.6273 0.364971 13.3044 0.207776C13.1647 0.137919 13.0107 0.101414 12.8545 0.101127L8.46111 0.0930657C4.37403 0.0845685 3.80898 0.0930657 3.63479 0.152545Z" fill="url(#paint0_linear_6446_1423)"/>
<path d="M4.3443 5.77334C2.22003 8.06754 0.682068 11.3559 0.30395 14.4063C0.223228 15.0649 0.223228 16.3224 0.30395 16.8917C0.669323 19.4536 2.05009 21.1742 4.17861 21.7181C4.55248 21.8115 4.55248 21.8115 8.52485 21.8115H12.056C12.3488 21.8115 12.6402 21.7715 12.9221 21.6926C14.9019 21.1445 16.1637 19.4833 16.4908 17.0022C16.5758 16.3692 16.5716 15.0776 16.4908 14.4063C16.2402 12.384 15.4712 10.2258 14.3028 8.26297C13.7675 7.36229 13.2705 6.69102 12.5482 5.88805C12.3345 5.65265 12.0313 5.51843 11.7133 5.51843H8.39739H4.93091C4.70849 5.51843 4.49606 5.61074 4.3443 5.77334ZM8.77551 9.29537C8.98369 9.44406 9.04317 9.60551 9.06866 10.0941C9.08055 10.3391 9.28269 10.5317 9.52802 10.5317H9.61672C10.2073 10.5317 10.3177 10.5657 10.5004 10.8078C10.7468 11.1265 10.6364 11.5683 10.2667 11.751C10.0883 11.8445 10.0331 11.8487 8.99219 11.8487C8.02352 11.8487 7.89182 11.8572 7.76436 11.9252C7.39049 12.1249 7.36925 12.6942 7.72612 12.9109C7.83659 12.9788 7.9428 12.9958 8.24869 12.9958C9.18337 13.0001 9.6847 13.17 10.1095 13.6331C10.6746 14.2407 10.7936 15.0224 10.4324 15.7574C10.203 16.2205 9.6762 16.6538 9.22161 16.7515C9.14383 16.7691 9.08739 16.8365 9.08377 16.9161L9.06866 17.2486C9.04742 17.6522 9.03042 17.7329 8.93695 17.8774C8.67355 18.2725 8.12124 18.2725 7.85783 17.8774C7.76436 17.7372 7.74737 17.6522 7.73037 17.2656C7.71607 17.0152 7.50885 16.8195 7.25806 16.8195H7.16532C6.67674 16.8195 6.61301 16.811 6.48556 16.7218C6.16267 16.5051 6.07345 16.2035 6.23914 15.8848C6.31137 15.7446 6.38784 15.6682 6.52804 15.5959C6.70648 15.5067 6.76171 15.5025 7.8026 15.5025C8.77126 15.5025 8.90297 15.494 9.03042 15.426C9.40429 15.2263 9.42554 14.657 9.06866 14.4403C8.9582 14.3724 8.85198 14.3554 8.54609 14.3554C8.33791 14.3554 8.01927 14.3341 7.84508 14.3129C6.7872 14.1769 6.00972 13.1785 6.17966 12.1674C6.28587 11.5258 6.67674 10.999 7.25879 10.7229C7.42873 10.6421 7.59867 10.5742 7.64115 10.5742C7.70913 10.5742 7.71763 10.5317 7.71763 10.2428C7.72188 9.63525 7.8111 9.41008 8.09999 9.24863C8.29118 9.14242 8.58858 9.16366 8.77551 9.29537Z" fill="url(#paint1_linear_6446_1423)"/>
<defs>
<linearGradient id="paint0_linear_6446_1423" x1="8.39243" y1="4.15891" x2="8.39243" y2="0.0902748" gradientUnits="userSpaceOnUse">
<stop stop-color="#FF295D"/>
<stop offset="0.485577" stop-color="#E31B95"/>
<stop offset="1" stop-color="#C817AE"/>
</linearGradient>
<linearGradient id="paint1_linear_6446_1423" x1="8.39819" y1="21.8115" x2="8.39819" y2="5.51843" gradientUnits="userSpaceOnUse">
<stop stop-color="#FF295D"/>
<stop offset="0.485577" stop-color="#E31B95"/>
<stop offset="1" stop-color="#C817AE"/>
</linearGradient>
</defs>
</svg>
