<svg width="39" height="41" viewBox="0 0 39 41" fill="none" xmlns="http://www.w3.org/2000/svg">
<path d="M22.2921 0.968533C21.3465 1.29205 20.4672 2.03032 20.0359 2.86814C19.9114 3.1087 19.787 3.30778 19.7621 3.30778C19.7372 3.30778 19.646 3.16676 19.5547 3.00086C19.0902 2.12986 17.9123 1.31693 16.8837 1.15103C15.3159 0.893875 13.5324 1.83123 12.8688 3.25801C12.3462 4.36957 12.3877 5.43965 12.9932 6.64246L13.3582 7.37244H12.8854C10.4051 7.37244 8.57187 9.6868 9.18572 12.0426C9.62536 13.7349 11.0355 14.7552 12.9269 14.7552C13.2255 14.7552 13.4577 14.7801 13.4412 14.8132C12.8854 15.8999 12.7692 16.3893 12.8107 17.3516C12.8356 17.982 12.8854 18.206 13.0762 18.5959C14.055 20.6116 16.7509 21.3333 18.5095 20.0641C18.916 19.7655 18.8994 19.6079 18.7252 21.6402C18.2607 27.2892 18.3685 33.3696 19.0653 39.5164C19.1317 40.1136 19.2561 40.462 19.4303 40.5533C19.6957 40.6943 20.1603 40.6528 20.3428 40.4703C20.5502 40.2629 20.5584 39.9228 20.3843 38.5375C19.9114 34.5475 19.7289 29.0976 19.928 24.9168C20.011 23.2163 20.3262 19.0272 20.3843 18.8364C20.4091 18.7784 20.6414 18.9526 20.9483 19.2595C21.5622 19.8733 22.1677 20.1968 22.9475 20.3296C24.5402 20.595 26.2987 19.6576 27.0038 18.1811C27.5015 17.1193 27.3937 15.6013 26.7301 14.5644C26.5974 14.3487 26.4812 14.1496 26.4812 14.133C26.4812 14.1081 26.7135 14.0916 27.0038 14.0916C28.0739 14.0833 28.9283 13.7349 29.6832 12.98C30.2804 12.3744 30.5957 11.7606 30.7284 10.9062C30.9772 9.31352 30.239 7.83697 28.862 7.16505C28.2066 6.84984 27.2527 6.65905 26.6803 6.742L26.3236 6.78348L26.531 6.43508C27.0702 5.49772 27.2361 4.12071 26.9126 3.20824C26.5227 2.10498 25.6434 1.28375 24.4987 0.951942C23.8931 0.777744 22.823 0.786037 22.2921 0.968533ZM20.4506 8.89876C20.9898 9.05636 21.305 9.31352 21.5871 9.80293C22.317 11.0721 21.3797 12.6814 19.928 12.6814C18.4764 12.6814 17.539 11.0721 18.269 9.80293C18.5427 9.32181 18.8662 9.06466 19.3722 8.89876C19.8285 8.75774 19.9944 8.75774 20.4506 8.89876Z" fill="black"/>
<path d="M6.00635 16.2731C5.88192 16.4058 5.78238 16.7293 5.64136 17.4759C5.54182 18.0317 5.42569 18.4879 5.39251 18.4879C5.35103 18.4879 4.86991 18.1976 4.31413 17.8492C3.16109 17.1192 2.87076 17.0528 2.53895 17.4427C2.43112 17.5671 2.33987 17.7579 2.33987 17.8658C2.33987 17.9736 2.58043 18.6704 2.87076 19.417C3.16109 20.1552 3.38506 20.7857 3.36847 20.8023C3.35188 20.8188 2.87076 20.7442 2.2901 20.6364C1.34444 20.4705 1.22001 20.4622 1.02093 20.57C0.730597 20.7276 0.564693 21.0926 0.65594 21.3497C0.747188 21.6235 4.93627 26.725 5.31785 27.0237C6.57043 28.0108 8.1714 28.1767 9.7392 27.4965C9.92169 27.4135 11.9706 29.3961 12.8997 30.5574C14.8573 32.9879 15.9274 35.4682 16.392 38.6536C16.4666 39.143 16.5247 39.6905 16.5247 39.8812C16.5247 40.3541 16.7984 40.6361 17.263 40.6361C17.686 40.6361 17.9349 40.3541 17.9349 39.8564C17.9349 38.9522 17.5865 36.9696 17.1883 35.6424C16.2841 32.6063 14.849 30.3169 12.1697 27.6541L11.0001 26.4928L11.2655 26.1029C12.0619 24.9333 12.1531 23.2079 11.4978 21.9055C11.3153 21.5405 10.5024 20.4787 9.14194 18.8197C7.9972 17.4261 7.00178 16.2399 6.92712 16.1818C6.69485 16.0159 6.20544 16.0574 6.00635 16.2731Z" fill="black"/>
<path d="M31.7205 17.2851C31.48 17.3515 31.1647 17.4676 31.0237 17.5423C30.5841 17.7662 29.8956 18.4796 29.5057 19.1018C28.643 20.4871 28.4107 21.3664 28.56 22.5775C28.643 23.2328 29.0163 24.3443 29.2568 24.6596C29.373 24.8172 29.2983 24.9084 27.9877 26.2357C27.2245 27.0154 26.5775 27.6624 26.5443 27.679C26.5028 27.6956 26.4779 27.6375 26.4779 27.5463C26.4779 27.4551 26.3452 27.1315 26.1959 26.8163C25.9636 26.3518 25.6816 26.02 24.7194 25.066C23.4336 23.7886 23.2677 23.6973 22.7119 23.8881C22.1976 24.0706 22.1147 24.3029 21.9571 25.8707C21.7248 28.1519 21.8575 29.0477 22.5626 29.9768C22.9359 30.4662 23.3175 30.74 23.7903 30.8561L24.1387 30.9473L23.699 31.7934C22.5709 33.9253 21.9736 35.7503 21.5423 38.4545C21.31 39.873 21.2934 40.2048 21.451 40.4039C21.6916 40.7274 22.2723 40.7606 22.5377 40.4702C22.6207 40.379 22.7534 39.8066 22.911 38.8859C23.0437 38.0895 23.1765 37.3181 23.2096 37.177L23.2594 36.9033L23.5 37.0692C24.2465 37.6084 25.4576 37.6167 26.536 37.0941C27.1582 36.7872 27.4402 36.53 28.5517 35.236C29.4725 34.1659 29.5472 34.058 29.5472 33.7428C29.5472 33.3695 29.373 33.0128 29.0992 32.8303C28.8836 32.6893 25.5074 32.6147 25.0263 32.7474L24.7277 32.8303L25.0346 32.2746C25.9719 30.5658 26.9674 29.3049 28.867 27.4136L30.2689 26.02L30.7417 26.4016C31.6376 27.1232 32.3344 27.3638 33.5704 27.3638C35.5695 27.3638 37.4691 26.4347 38.0995 25.149C38.2654 24.8255 38.2986 24.6181 38.2986 24.0374C38.2986 23.3904 38.2737 23.2909 38.0498 22.9176C37.859 22.6106 37.6848 22.453 37.353 22.2788C37.1041 22.1544 36.7972 22.0549 36.6645 22.0549C36.4322 22.0549 36.4322 22.0466 36.4322 21.5655C36.4322 20.6032 35.7354 19.7737 34.8395 19.6741C34.4828 19.6327 34.4745 19.6244 34.5077 19.3506C34.599 18.6207 34.1178 17.7497 33.4376 17.4096C33.0063 17.1856 32.268 17.1275 31.7205 17.2851Z" fill="black"/>
</svg>
