<svg width="40" height="35" viewBox="0 0 40 35" fill="none" xmlns="http://www.w3.org/2000/svg">
<path d="M20.9857 1.09135C18.4883 1.84672 7.7281 5.32299 7.45832 5.45402C7.0421 5.66984 6.76461 5.95504 6.51796 6.41751L6.34068 6.76437L6.31755 13.5165L6.30214 20.2763L5.93216 20.1607C4.44453 19.7137 2.64859 20.1684 1.52324 21.2938C0.644533 22.1725 0.212891 23.2207 0.212891 24.4926C0.212891 25.7952 0.605994 26.7741 1.4847 27.6605C3.88956 30.0808 7.91309 29.1096 9.02303 25.8414C9.1849 25.3481 9.1926 25.2942 9.21573 19.3976L9.23885 13.4548L14.804 11.6897L20.3691 9.9169L20.3922 12.3372C20.3999 13.6707 20.3999 14.7806 20.3845 14.796C20.3691 14.8114 20.1301 14.7729 19.8603 14.7035C17.1703 14.0715 14.5342 16.0293 14.3492 18.7887C14.2182 20.6155 15.2433 22.3806 16.8774 23.1437C17.6482 23.5059 18.3804 23.6447 19.1666 23.583C21.0088 23.4366 22.5196 22.2727 23.1208 20.5384L23.2981 20.022V11.0345V2.05483L23.09 1.7311C22.6583 1.08364 21.8413 0.829277 20.9857 1.09135Z" fill="black"/>
<path d="M30.9763 13.5936C30.1978 13.74 29.6043 14.3413 29.4348 15.1352C29.3808 15.3895 29.35 17.3242 29.35 20.654C29.35 25.5023 29.3423 25.7798 29.2189 25.7258C28.5406 25.4715 27.0684 25.4792 26.3131 25.7567C24.1934 26.5121 22.937 28.6934 23.3763 30.8593C23.6692 32.3315 24.5402 33.4646 25.8429 34.0812C26.498 34.3895 27.0453 34.5129 27.8469 34.5052C29.2112 34.4974 30.4214 33.9194 31.3001 32.8557C31.6623 32.424 32.0863 31.5607 32.1942 31.0212C32.2481 30.7514 32.279 29.0017 32.279 25.826C32.279 21.3092 32.2867 21.0471 32.4177 21.1011C33.0266 21.3323 33.5662 21.4634 34.5143 21.6021C36.3642 21.8719 37.4664 22.1571 38.3066 22.5733C38.7922 22.82 39.2392 22.82 39.4859 22.5656C39.6554 22.396 39.6786 22.3112 39.6786 21.764C39.6786 20.0759 39.2084 18.3879 38.4915 17.4938C38.2449 17.1855 37.5358 16.6382 37.0656 16.3993C36.9191 16.3222 36.3256 16.0833 35.7475 15.8674C34.4218 15.3587 33.8514 15.0427 33.1268 14.3952C32.3021 13.6553 31.7394 13.4471 30.9763 13.5936Z" fill="black"/>
</svg>
