<svg width="22" height="22" viewBox="0 0 22 22" fill="none" xmlns="http://www.w3.org/2000/svg">
<path d="M12.2732 0.403902C9.58176 0.653111 7.10075 2.08745 5.88239 4.10328C5.58888 4.59062 5.35628 5.1278 5.19014 5.71483C5.09046 6.0748 5.09046 6.10803 5.17353 6.0748C5.45043 5.96958 6.40296 5.74806 6.98445 5.65391C7.83176 5.521 9.60945 5.50992 10.3903 5.63176C12.8381 6.01942 14.7985 6.98857 16.3713 8.58904C17.2242 9.45297 17.8334 10.3723 18.2321 11.3746C18.4592 11.9506 18.6862 12.9087 18.7305 13.4846L18.7693 14.0273L19.8326 14.0107C21.0232 13.9941 21.0675 13.9775 21.1894 13.6009C21.2448 13.4403 21.2337 13.3739 21.1395 13.1745C21.0786 13.0471 20.9402 12.8533 20.8405 12.7481C20.7463 12.6428 20.4528 12.305 20.1925 12.0004C19.9323 11.6959 19.7052 11.4356 19.683 11.43C19.5944 11.3913 19.6443 11.2916 19.9876 10.8153C20.6854 9.84617 21.0565 8.89363 21.1894 7.75835C21.3001 6.75597 21.0842 5.55423 20.6134 4.60169C19.9433 3.24489 18.5865 1.949 17.0913 1.24014C16.1498 0.791561 15.2582 0.553428 14.0731 0.420516C13.2811 0.337446 13.0541 0.331908 12.2732 0.403902Z" fill="#ADADAD"/>
<path d="M8.42427 6.80614C6.94009 6.86152 5.42822 7.24918 4.18771 7.89712C1.78976 9.14317 0.294507 11.1867 0.0397599 13.5625C-0.142994 15.2128 0.432957 17.0625 1.54055 18.4027C1.65685 18.5467 1.751 18.6851 1.751 18.7073C1.751 18.735 1.37995 19.178 0.925838 19.6986C0.466185 20.2136 0.0674498 20.7231 0.0342219 20.8228C-0.021158 20.9723 -0.010082 21.0332 0.0729878 21.2104C0.277893 21.6313 0.017608 21.6092 5.00733 21.6092C9.57617 21.6092 10.1134 21.587 10.9994 21.3821C13.4472 20.8117 15.7455 19.0839 16.77 17.0403C17.285 16.0213 17.5066 15.0134 17.4623 13.9225C17.429 13.0087 17.3293 12.5823 16.9638 11.6962C16.4543 10.4667 15.4243 9.24839 14.2115 8.43985C12.5445 7.32671 10.4456 6.73415 8.42427 6.80614ZM5.48914 12.909C5.91002 13.1028 6.23677 13.6068 6.23677 14.0498C6.23677 14.4929 5.91002 14.9968 5.48914 15.1906C5.01841 15.4066 4.39262 15.2848 4.04372 14.9027C3.83882 14.6812 3.68929 14.3156 3.68929 14.0498C3.68929 13.784 3.83882 13.4185 4.04372 13.197C4.28186 12.9422 4.59752 12.8038 4.96303 12.8038C5.14578 12.8038 5.35623 12.8481 5.48914 12.909ZM9.25497 12.909C10.4844 13.485 10.0967 15.2903 8.73993 15.2959C8.00892 15.2959 7.5105 14.7919 7.5105 14.0498C7.5105 13.5016 7.77079 13.0918 8.25813 12.8813C8.5018 12.7761 8.99468 12.7872 9.25497 12.909ZM13.2036 12.9921C13.3309 13.0696 13.5026 13.2413 13.5857 13.3742C13.7241 13.5791 13.7407 13.6622 13.7407 14.0498C13.7407 14.4375 13.7241 14.5206 13.5857 14.7255C13.5026 14.8584 13.3309 15.03 13.198 15.1131C12.9931 15.2516 12.91 15.2682 12.5224 15.2682C12.1347 15.2682 12.0517 15.2516 11.8467 15.1131C11.3816 14.8141 11.1711 14.216 11.3317 13.6456C11.4092 13.3576 11.7914 12.9478 12.0627 12.8647C12.3895 12.765 12.9377 12.8259 13.2036 12.9921Z" fill="#ADADAD"/>
</svg>
