<svg width="22" height="22" viewBox="0 0 22 22" fill="none" xmlns="http://www.w3.org/2000/svg">
<path d="M12.2733 0.404146C9.58188 0.653356 7.10087 2.08769 5.88251 4.10352C5.589 4.59086 5.3564 5.12805 5.19026 5.71507C5.09058 6.07504 5.09058 6.10827 5.17365 6.07504C5.45055 5.96982 6.40308 5.7483 6.98457 5.65416C7.83188 5.52124 9.60957 5.51017 10.3904 5.632C12.8382 6.01966 14.7987 6.98881 16.3715 8.58929C17.2243 9.45321 17.8335 10.3725 18.2322 11.3749C18.4593 11.9508 18.6863 12.9089 18.7306 13.4849L18.7694 14.0276L19.8327 14.011C21.0234 13.9944 21.0677 13.9777 21.1895 13.6012C21.2449 13.4406 21.2338 13.3741 21.1397 13.1747C21.0787 13.0474 20.9403 12.8535 20.8406 12.7483C20.7465 12.6431 20.4529 12.3053 20.1927 12.0007C19.9324 11.6961 19.7053 11.4358 19.6832 11.4303C19.5946 11.3915 19.6444 11.2918 19.9878 10.8156C20.6855 9.84641 21.0566 8.89388 21.1895 7.75859C21.3003 6.75621 21.0843 5.55447 20.6135 4.60194C19.9435 3.24513 18.5866 1.94924 17.0914 1.24038C16.1499 0.791805 15.2583 0.553672 14.0732 0.42076C13.2813 0.33769 13.0542 0.332152 12.2733 0.404146Z" fill="#ADADAD"/>
<path d="M8.42427 6.80602C6.94009 6.8614 5.42822 7.24906 4.18771 7.897C1.78976 9.14305 0.294507 11.1866 0.0397599 13.5624C-0.142994 15.2127 0.432957 17.0624 1.54055 18.4026C1.65685 18.5465 1.751 18.685 1.751 18.7071C1.751 18.7348 1.37995 19.1779 0.925838 19.6984C0.466185 20.2135 0.0674498 20.723 0.0342219 20.8227C-0.021158 20.9722 -0.010082 21.0331 0.0729878 21.2103C0.277893 21.6312 0.017608 21.6091 5.00733 21.6091C9.57617 21.6091 10.1134 21.5869 10.9994 21.382C13.4472 20.8116 15.7455 19.0837 16.77 17.0402C17.285 16.0212 17.5066 15.0133 17.4623 13.9223C17.429 13.0086 17.3293 12.5821 16.9638 11.6961C16.4543 10.4666 15.4243 9.24827 14.2115 8.43972C12.5445 7.32659 10.4456 6.73402 8.42427 6.80602ZM5.48914 12.9089C5.91002 13.1027 6.23677 13.6067 6.23677 14.0497C6.23677 14.4927 5.91002 14.9967 5.48914 15.1905C5.01841 15.4065 4.39262 15.2847 4.04372 14.9026C3.83882 14.681 3.68929 14.3155 3.68929 14.0497C3.68929 13.7839 3.83882 13.4184 4.04372 13.1969C4.28186 12.9421 4.59752 12.8037 4.96303 12.8037C5.14578 12.8037 5.35623 12.848 5.48914 12.9089ZM9.25497 12.9089C10.4844 13.4848 10.0967 15.2902 8.73993 15.2957C8.00892 15.2957 7.5105 14.7918 7.5105 14.0497C7.5105 13.5014 7.77079 13.0916 8.25813 12.8812C8.5018 12.776 8.99468 12.787 9.25497 12.9089ZM13.2036 12.9919C13.3309 13.0695 13.5026 13.2412 13.5857 13.3741C13.7241 13.579 13.7407 13.662 13.7407 14.0497C13.7407 14.4374 13.7241 14.5204 13.5857 14.7253C13.5026 14.8582 13.3309 15.0299 13.198 15.113C12.9931 15.2514 12.91 15.2681 12.5224 15.2681C12.1347 15.2681 12.0517 15.2514 11.8467 15.113C11.3816 14.8139 11.1711 14.2158 11.3317 13.6454C11.4092 13.3575 11.7914 12.9476 12.0627 12.8646C12.3895 12.7649 12.9377 12.8258 13.2036 12.9919Z" fill="#ADADAD"/>
</svg>
