<svg width="13" height="13" viewBox="0 0 13 13" fill="none" xmlns="http://www.w3.org/2000/svg">
<path d="M5.24952 0.159278C6.04334 0.159278 6.83256 0.154663 7.62639 0.159278C8.86329 0.163893 9.88788 1.18849 9.89249 2.42538C9.89711 3.69459 9.89711 4.96379 9.89249 6.22838C9.88788 7.46528 8.86329 8.48987 7.631 8.49448C7.1464 8.4991 6.66179 8.50371 6.17719 8.48987C5.98796 8.48525 5.84027 8.54987 5.6972 8.66986C4.91722 9.32985 4.13262 9.97599 3.35725 10.6267C3.17264 10.7837 2.9788 10.8667 2.74342 10.7652C2.50342 10.6591 2.4665 10.4467 2.4665 10.2068C2.47111 9.7083 2.46188 9.20524 2.47111 8.70679C2.47573 8.53602 2.42496 8.44833 2.24958 8.39756C1.28037 8.1068 0.629615 7.21605 0.625 6.2053C0.625 4.94994 0.625 3.6992 0.625 2.44384C0.629615 1.18387 1.65421 0.163893 2.9188 0.159278C3.69416 0.159278 4.47415 0.159278 5.24952 0.159278ZM5.92335 4.34073C5.93258 3.99458 5.61874 3.67151 5.26336 3.66228C4.92183 3.65305 4.60338 3.96227 4.58492 4.32227C4.56645 4.64995 4.87568 4.97764 5.21721 4.9961C5.5772 5.01917 5.91412 4.70072 5.92335 4.34073ZM4.07723 4.32688C4.07262 3.97612 3.75416 3.66228 3.40802 3.66689C3.05726 3.67151 2.74342 3.98996 2.74803 4.33611C2.75265 4.68687 3.0711 5.00071 3.41725 4.9961C3.76801 4.99148 4.08185 4.66841 4.07723 4.32688ZM8.23099 4.33611C8.23561 3.98996 7.92177 3.66689 7.571 3.66689C7.22486 3.66228 6.9064 3.97612 6.90179 4.32688C6.89717 4.67303 7.21101 4.99148 7.56177 4.9961C7.90792 5.00071 8.22638 4.68226 8.23099 4.33611Z" fill="#0A0B18"/>
<path d="M12.6574 6.64349C12.6574 7.11886 12.6574 7.59885 12.6574 8.07422C12.6528 9.05728 11.9974 9.95264 11.0512 10.2388C10.8528 10.2988 10.802 10.3911 10.8066 10.5803C10.8205 10.9357 10.8066 11.2865 10.8113 11.6418C10.8159 11.8588 10.7559 12.0388 10.5528 12.1403C10.3451 12.2418 10.1513 12.1957 9.97588 12.0526C9.33436 11.5357 8.68822 11.0326 8.04669 10.5111C7.89901 10.3911 7.75132 10.3403 7.56209 10.3449C7.2021 10.3542 6.83749 10.3496 6.4775 10.3449C6.17289 10.3403 5.88674 10.248 5.61444 10.1234C5.48983 10.0634 5.47136 9.9988 5.58675 9.90649C5.76674 9.76342 5.94212 9.61573 6.1175 9.46343C6.20058 9.38958 6.30212 9.3942 6.39904 9.3942C6.90672 9.38035 7.4144 9.40804 7.92208 9.35727C9.36667 9.21881 10.6128 7.98192 10.7374 6.53272C10.8297 5.45736 10.7559 4.382 10.7743 3.30663C10.7789 2.96049 10.7928 2.94664 11.1251 3.06202C12.0297 3.38048 12.6528 4.25738 12.6528 5.21736C12.662 5.68812 12.6574 6.1635 12.6574 6.64349Z" fill="#0A0B18"/>
</svg>
