<svg width="21" height="16" viewBox="0 0 21 16" fill="none" xmlns="http://www.w3.org/2000/svg">
<path d="M1.36155 0.191389C1.06601 0.304162 0.739358 0.634703 0.630474 0.934134C0.544922 1.15579 0.544922 1.19468 0.544922 3.52791C0.544922 5.86114 0.544922 5.90003 0.630474 6.12168C0.739358 6.425 1.07379 6.75555 1.381 6.86832C1.59099 6.94609 1.65321 6.94998 3.96699 6.94998C6.30022 6.94998 6.33911 6.94998 6.56077 6.86443C6.86409 6.75555 7.19463 6.42112 7.3074 6.11391C7.38518 5.90392 7.38907 5.8417 7.38907 3.52791C7.38907 1.19468 7.38907 1.15579 7.30351 0.934134C7.19074 0.626925 6.86798 0.304162 6.56077 0.191389C6.33911 0.105837 6.30411 0.105837 3.95533 0.109726C1.62987 0.109726 1.57154 0.113615 1.36155 0.191389Z" fill="#ADADAD"/>
<path d="M9.53585 2.05032C9.34919 2.16698 9.25586 2.34197 9.25586 2.59474C9.25586 2.84751 9.34919 3.0225 9.53585 3.13916C9.66029 3.21693 9.74195 3.21693 14.8556 3.21693C19.9693 3.21693 20.0509 3.21693 20.1754 3.13916C20.362 3.0225 20.4554 2.84751 20.4554 2.59474C20.4554 2.34197 20.362 2.16698 20.1754 2.05032C20.0509 1.97254 19.9693 1.97254 14.8556 1.97254C9.74195 1.97254 9.66029 1.97254 9.53585 2.05032Z" fill="#ADADAD"/>
<path d="M9.53585 4.38357C9.34919 4.50023 9.25586 4.67522 9.25586 4.92799C9.25586 5.18076 9.34919 5.35575 9.53585 5.47241C9.66029 5.5463 9.74195 5.55019 13.1446 5.55019C16.5472 5.55019 16.6289 5.5463 16.7533 5.47241C16.94 5.35575 17.0333 5.18076 17.0333 4.92799C17.0333 4.67522 16.94 4.50023 16.7533 4.38357C16.6289 4.30968 16.5472 4.3058 13.1446 4.3058C9.74195 4.3058 9.66029 4.30968 9.53585 4.38357Z" fill="#ADADAD"/>
<path d="M1.36155 9.21322C1.06601 9.326 0.739358 9.65654 0.630474 9.95597C0.544922 10.1776 0.544922 10.2165 0.544922 12.5497C0.544922 14.883 0.544922 14.9219 0.630474 15.1435C0.739358 15.4468 1.07379 15.7774 1.381 15.8902C1.59099 15.9679 1.65321 15.9718 3.96699 15.9718C6.30022 15.9718 6.33911 15.9718 6.56077 15.8863C6.86409 15.7774 7.19463 15.443 7.3074 15.1357C7.38518 14.9258 7.38907 14.8635 7.38907 12.5497C7.38907 10.2165 7.38907 10.1776 7.30351 9.95597C7.19074 9.64876 6.86798 9.326 6.56077 9.21322C6.33911 9.12767 6.30411 9.12767 3.95533 9.13156C1.62987 9.13156 1.57154 9.13545 1.36155 9.21322Z" fill="#ADADAD"/>
<path d="M9.53585 10.9165C9.34919 11.0332 9.25586 11.2082 9.25586 11.461C9.25586 11.7137 9.34919 11.8887 9.53585 12.0054C9.66029 12.0831 9.74195 12.0831 14.8556 12.0831C19.9693 12.0831 20.0509 12.0831 20.1754 12.0054C20.362 11.8887 20.4554 11.7137 20.4554 11.461C20.4554 11.2082 20.362 11.0332 20.1754 10.9165C20.0509 10.8388 19.9693 10.8388 14.8556 10.8388C9.74195 10.8388 9.66029 10.8388 9.53585 10.9165Z" fill="#ADADAD"/>
<path d="M9.53585 13.4053C9.34919 13.522 9.25586 13.697 9.25586 13.9497C9.25586 14.2025 9.34919 14.3775 9.53585 14.4941C9.66029 14.568 9.74195 14.5719 13.1446 14.5719C16.5472 14.5719 16.6289 14.568 16.7533 14.4941C16.94 14.3775 17.0333 14.2025 17.0333 13.9497C17.0333 13.697 16.94 13.522 16.7533 13.4053C16.6289 13.3314 16.5472 13.3275 13.1446 13.3275C9.74195 13.3275 9.66029 13.3314 9.53585 13.4053Z" fill="#ADADAD"/>
</svg>
