<svg width="26" height="25" viewBox="0 0 26 25" fill="none" xmlns="http://www.w3.org/2000/svg">
<path d="M1.39414 0.741507C0.846673 0.931223 0.602752 1.63046 0.895457 2.19419C1.03639 2.47606 1.21526 2.61699 1.50797 2.68203C1.6218 2.70913 2.39692 2.73624 3.22625 2.73624H4.72772V9.30584C4.72772 14.813 4.74398 15.9405 4.80903 16.2494C5.04211 17.3444 5.86602 18.2008 6.97721 18.4827C7.45421 18.6019 20.3712 18.6073 20.8428 18.4827C21.6396 18.2767 22.4743 17.5991 22.8158 16.8836C22.9079 16.6885 23.5638 14.6016 24.2739 12.2491C25.6615 7.64175 25.6832 7.56045 25.5477 6.82868C25.3526 5.78254 24.4528 4.87732 23.4066 4.69302C23.1844 4.64966 20.485 4.6334 14.9345 4.6334H6.7875V3.12651C6.7875 1.49495 6.74955 1.19141 6.50563 0.958326C6.20751 0.681883 6.14246 0.676462 3.7683 0.681883C2.38066 0.681883 1.49713 0.703564 1.39414 0.741507Z" fill="url(#paint0_linear_6755_2054)"/>
<path d="M8.03943 20.6183C7.67084 20.7593 7.34019 21.014 7.09085 21.3501C6.81983 21.7187 6.71684 22.1089 6.74394 22.651C6.7602 23.0196 6.79814 23.1443 6.9445 23.4315C7.73588 24.9059 9.82818 24.868 10.5328 23.3719C11.0153 22.3312 10.5708 21.1387 9.51921 20.6671C9.13978 20.4991 8.43512 20.472 8.03943 20.6183Z" fill="url(#paint1_linear_6755_2054)"/>
<path d="M20.03 20.5912C18.9892 20.9273 18.4147 21.9626 18.6803 23.0088C19.1302 24.7975 21.5965 25.0577 22.4095 23.399C22.5776 23.063 22.5884 22.9979 22.5884 22.4938C22.5884 21.9897 22.5776 21.9301 22.415 21.6265C22.209 21.2309 21.8729 20.9002 21.4772 20.6996C21.2333 20.5804 21.0924 20.5479 20.7184 20.5316C20.4311 20.5208 20.1709 20.5425 20.03 20.5912Z" fill="url(#paint2_linear_6755_2054)"/>
<defs>
<linearGradient id="paint0_linear_6755_2054" x1="13.186" y1="18.5742" x2="13.186" y2="0.680834" gradientUnits="userSpaceOnUse">
<stop stop-color="#FF295D"/>
<stop offset="0.485577" stop-color="#E31B95"/>
<stop offset="1" stop-color="#C817AE"/>
</linearGradient>
<linearGradient id="paint1_linear_6755_2054" x1="8.73348" y1="24.5159" x2="8.73348" y2="20.5231" gradientUnits="userSpaceOnUse">
<stop stop-color="#FF295D"/>
<stop offset="0.485577" stop-color="#E31B95"/>
<stop offset="1" stop-color="#C817AE"/>
</linearGradient>
<linearGradient id="paint2_linear_6755_2054" x1="20.6021" y1="24.5081" x2="20.6021" y2="20.5289" gradientUnits="userSpaceOnUse">
<stop stop-color="#FF295D"/>
<stop offset="0.485577" stop-color="#E31B95"/>
<stop offset="1" stop-color="#C817AE"/>
</linearGradient>
</defs>
</svg>
