<svg width="25" height="25" viewBox="0 0 25 25" fill="none" xmlns="http://www.w3.org/2000/svg">
<path d="M3.02969 0.709885C2.14813 0.837221 1.23229 1.50329 0.850283 2.282C0.512351 2.97745 0.522147 2.84522 0.502556 5.8964C0.492761 7.81624 0.502556 8.78105 0.541737 9.05532C0.718049 10.2699 1.62899 11.2739 2.80441 11.5531C3.26478 11.6608 8.75983 11.6608 9.18592 11.5531C10.2585 11.2788 11.1156 10.4217 11.3898 9.34917C11.4976 8.92308 11.4976 3.42803 11.3898 2.96766C11.1792 2.0812 10.5523 1.32698 9.70016 0.935172C9.13205 0.675602 8.90676 0.660909 5.97802 0.665807C4.50876 0.665807 3.18152 0.685397 3.02969 0.709885Z" fill="white"/>
<path d="M18.2223 0.709897C16.7041 0.886209 15.2201 1.79715 14.3483 3.09011C13.6774 4.08431 13.3835 5.15198 13.4374 6.40575C13.4962 7.84074 14.0447 9.06512 15.0732 10.0642C15.7931 10.7646 16.5718 11.2054 17.5122 11.4551C18.717 11.7784 20.245 11.6265 21.3323 11.078C23.6586 9.9075 24.8536 7.25793 24.1924 4.73569C23.7027 2.85992 22.1697 1.33189 20.3038 0.856823C19.5887 0.675613 18.9422 0.626638 18.2223 0.709897Z" fill="white"/>
<path d="M2.77992 13.6639C1.6192 13.943 0.718049 14.9519 0.541737 16.1567C0.502556 16.431 0.492761 17.3958 0.502556 19.3156C0.522147 22.3717 0.512351 22.2297 0.85518 22.9398C1.06088 23.3757 1.6241 23.9389 2.08447 24.174C2.79951 24.5413 2.66728 24.5315 5.97802 24.5315C8.69617 24.5315 8.96553 24.5266 9.25449 24.4434C10.3173 24.1397 11.1449 23.2924 11.3898 22.2444C11.4976 21.784 11.4976 16.2889 11.3898 15.8629C11.1156 14.7854 10.2634 13.9332 9.18592 13.659C8.77453 13.5561 3.2158 13.5561 2.77992 13.6639Z" fill="white"/>
<path d="M15.6753 13.6639C14.6174 13.9382 13.7652 14.8001 13.4958 15.8629C13.3881 16.289 13.3881 21.7841 13.4958 22.2444C13.7015 23.1211 14.3382 23.89 15.161 24.2622C15.7536 24.5316 15.7585 24.5316 18.9321 24.5316C22.189 24.5316 22.0568 24.5414 22.7718 24.1986C23.2126 23.988 23.7758 23.4247 24.0109 22.9644C24.3782 22.2542 24.3635 22.3914 24.3831 19.3157C24.3929 17.3959 24.3831 16.431 24.3439 16.1568C24.1676 14.9422 23.2616 13.9382 22.0813 13.659C21.6307 13.5562 16.0818 13.5562 15.6753 13.6639Z" fill="white"/>
</svg>
