<svg width="15" height="16" viewBox="0 0 15 16" fill="none" xmlns="http://www.w3.org/2000/svg">
<path d="M7.72559 12.8825C6.25744 12.8825 4.78929 12.8825 3.32113 12.8825C2.92607 12.8825 2.53634 12.8553 2.34948 12.426C2.16263 11.9859 2.36016 11.6381 2.6965 11.3881C3.30512 10.9316 3.49197 10.3501 3.43859 9.58392C3.37452 8.62205 3.39054 7.64389 3.43325 6.67659C3.50265 5.13869 4.08991 3.85621 5.38189 2.97042C5.65416 2.78022 5.95313 2.62806 6.27345 2.55198C6.56708 2.48134 6.64183 2.32375 6.63115 2.03573C6.61513 1.41079 6.96215 0.976049 7.52806 0.872798C8.15803 0.753245 8.77732 1.25863 8.79868 1.91074C8.80401 2.00312 8.80935 2.09007 8.79868 2.18245C8.77732 2.36722 8.8574 2.45417 9.03358 2.50851C10.6459 3.04107 11.5321 4.21487 11.8951 5.85601C11.9912 6.29619 12.0019 6.73636 12.0019 7.17654C12.0019 8.23622 12.0073 9.2959 11.9966 10.3556C11.9966 10.5512 12.0446 10.7034 12.1888 10.8338C12.413 11.0403 12.6159 11.2685 12.8294 11.4859C13.0857 11.7413 13.2085 12.0348 13.0697 12.3934C12.9255 12.763 12.6212 12.8825 12.2528 12.8825C11.3613 12.8825 10.475 12.8825 9.58347 12.8825C8.97485 12.8825 8.35022 12.8825 7.72559 12.8825Z" fill="black"/>
<path d="M1.42673 6.69817C0.956922 6.70361 0.599226 6.31778 0.673969 5.85043C0.946244 4.1006 1.73104 2.62248 3.01767 1.42694C3.33266 1.13349 3.79713 1.1661 4.0694 1.47042C4.34168 1.77473 4.331 2.20404 4.01068 2.51379C3.23122 3.28546 2.6493 4.17668 2.33965 5.24723C2.25423 5.53524 2.20619 5.82869 2.13144 6.11671C2.04068 6.47537 1.77375 6.69274 1.42673 6.69817Z" fill="black"/>
<path d="M11.9488 1.2257C12.1463 1.22026 12.3118 1.30721 12.4506 1.43763C13.7052 2.62774 14.4687 4.08412 14.7516 5.80134C14.821 6.21978 14.5648 6.60018 14.175 6.67626C13.7586 6.75777 13.3849 6.51867 13.3048 6.07849C13.0539 4.66558 12.4239 3.47005 11.4096 2.48101C11.1747 2.25277 11.1159 1.97019 11.2441 1.66044C11.3615 1.38872 11.6338 1.22026 11.9488 1.2257Z" fill="black"/>
<path d="M7.72009 13.5237C8.10982 13.5237 8.49954 13.5292 8.88927 13.5237C9.12418 13.5183 9.17756 13.6107 9.13485 13.8389C9.00672 14.5291 8.38743 15.0616 7.69873 15.0508C6.99402 15.0399 6.39608 14.5182 6.27329 13.8226C6.23592 13.6053 6.30532 13.5237 6.51887 13.5237C6.92462 13.5237 7.32502 13.5237 7.72009 13.5237Z" fill="black"/>
</svg>
