<svg width="21" height="22" viewBox="0 0 21 22" fill="none" xmlns="http://www.w3.org/2000/svg">
<path d="M17.6154 0.651765C17.1119 0.758762 16.4573 1.13011 16.1237 1.49515C15.0978 2.61548 15.1293 4.21414 16.1992 5.27781C16.8412 5.92609 17.7161 6.21561 18.5469 6.06456C20.7372 5.65545 21.612 3.09382 20.1078 1.47627C19.5161 0.83429 18.4462 0.481829 17.6154 0.651765Z" fill="#ADADAD"/>
<path d="M4.22813 1.43849C2.35883 1.77836 0.829401 3.08121 0.281828 4.80575C-0.00139913 5.6932 -0.020281 6.03307 0.0111888 10.2185C0.0363645 14.574 0.0300706 14.4858 0.464353 15.4299C1.01822 16.6258 1.98119 17.551 3.17075 18.0293C3.86938 18.3063 4.11484 18.344 5.56874 18.3881C6.88417 18.4321 6.89676 18.4321 7.11705 18.6021C7.24293 18.6965 7.6898 19.2378 8.11779 19.7979C9.043 21.0315 9.1437 21.1448 9.46469 21.3148C9.96821 21.5791 10.6731 21.4469 11.0759 21.0001C11.1641 20.9057 11.5039 20.4714 11.8249 20.0371C12.6557 18.9231 12.9515 18.5832 13.1907 18.4888C13.3355 18.4258 13.6942 18.4007 14.418 18.4007C15.0285 18.4007 15.6516 18.3629 15.96 18.3126C17.5776 18.023 18.9308 16.9845 19.6294 15.4803C20.0826 14.5236 20.0826 14.4795 20.114 11.2885L20.1392 8.42477L19.9945 8.14783C19.7301 7.63173 19.6546 7.60655 18.3517 7.60655C17.3258 7.60655 17.1622 7.59397 16.7971 7.46179C15.4502 6.99604 14.481 6.02678 14.0152 4.67987C13.883 4.31482 13.8704 4.15118 13.8704 3.12527C13.8704 1.82242 13.8453 1.74689 13.3355 1.48255L13.0585 1.34408L8.86677 1.35038C5.72609 1.35667 4.568 1.37555 4.22813 1.43849ZM6.51912 9.51362C6.87788 9.70873 7.01005 9.94161 7.01005 10.4074C7.01005 10.8416 6.92823 11.0179 6.60724 11.257C6.37436 11.4333 5.8142 11.4584 5.53098 11.3011C4.87011 10.9423 4.86382 9.87238 5.52468 9.52621C5.80791 9.37515 6.25478 9.36886 6.51912 9.51362ZM10.5535 9.51991C11.0445 9.77167 11.2144 10.4388 10.9123 10.9423C10.541 11.578 9.56539 11.578 9.20034 10.9361C8.80383 10.25 9.26958 9.41292 10.05 9.40033C10.1948 9.40033 10.4277 9.45697 10.5535 9.51991ZM14.5943 9.52621C15.2174 9.84091 15.2677 10.785 14.6887 11.2382C14.5376 11.3577 14.4243 11.3829 14.0907 11.3829C13.6565 11.3829 13.4865 11.3011 13.2348 10.9801C13.0522 10.7346 13.0648 10.0612 13.2599 9.80944C13.5746 9.40662 14.1285 9.28704 14.5943 9.52621Z" fill="#ADADAD"/>
</svg>
