<svg width="41" height="41" viewBox="0 0 41 41" fill="none" xmlns="http://www.w3.org/2000/svg">
<path d="M18.264 0.986154C17.5495 1.31397 17.1376 1.9696 17.1292 2.78494C17.1292 3.05392 17.1881 3.40695 17.2553 3.58347C17.3394 3.77679 17.9446 4.45764 18.9028 5.41588L20.4242 6.93728L19.466 7.19785C18.9448 7.34915 14.4815 8.56796 9.54743 9.92125L0.570312 12.3673V13.8719V15.368H20.4915H40.4126V13.8634V12.3589L40.1856 12.3C39.8915 12.2328 21.6766 7.24829 21.0882 7.08017L20.6428 6.95409L22.0801 5.49993C23.694 3.86926 23.8453 3.62549 23.8537 2.75972C23.8537 1.99482 23.509 1.39802 22.8534 1.0618C22.1473 0.691959 21.1471 0.767609 20.6428 1.22151C20.4999 1.34759 20.483 1.34759 20.3402 1.22151C19.8947 0.818043 18.8776 0.700365 18.264 0.986154Z" fill="black"/>
<path d="M3.89112 17.9821C4.13488 18.663 4.55515 19.285 5.236 19.9658C5.78236 20.5038 6.07656 20.7223 6.63973 20.9913C9.4724 22.3614 12.801 21.3023 14.2215 18.5621C14.3728 18.2595 14.5325 17.9317 14.5662 17.8224L14.6166 17.6375H9.19501H3.77344L3.89112 17.9821Z" fill="black"/>
<path d="M15.1133 17.7552C15.1133 17.814 15.2646 18.1755 15.4579 18.5537C15.7017 19.0413 15.9706 19.4111 16.3993 19.8482C17.1054 20.5711 17.7526 20.9745 18.6856 21.3108C19.2992 21.5209 19.4589 21.5461 20.4928 21.5377C21.5015 21.5377 21.7032 21.5125 22.3168 21.3108C23.6785 20.8569 24.9057 19.7978 25.5446 18.5369C25.7211 18.1671 25.8724 17.814 25.8724 17.7552C25.8724 17.6543 25.015 17.6375 20.4928 17.6375C15.9706 17.6375 15.1133 17.6543 15.1133 17.7552Z" fill="black"/>
<path d="M26.426 17.8224C26.4512 17.9317 26.5941 18.2427 26.737 18.5201C28.1155 21.2771 31.5282 22.3782 34.3525 20.9913C35.5208 20.4114 36.6808 19.1421 37.0927 17.9821L37.2103 17.6375H31.7888H26.3672L26.426 17.8224Z" fill="black"/>
<path d="M3.64799 28.1613C3.62277 31.6916 3.57234 35.9448 3.53871 37.6175L3.48828 40.6687H5.00968H6.53109L6.99339 39.2145C9.28811 32.0194 12.0031 23.4121 11.9863 23.3869C11.9695 23.3785 11.6417 23.4626 11.2466 23.5886C10.6078 23.782 10.3976 23.8072 9.18724 23.8072C7.96003 23.8072 7.77511 23.782 7.08585 23.5718C6.08559 23.2692 5.11896 22.7817 4.37927 22.2185C4.04305 21.9664 3.75726 21.7562 3.74045 21.7562C3.72364 21.7562 3.68161 24.6393 3.64799 28.1613Z" fill="black"/>
<path d="M36.6727 22.1765C34.6638 23.782 31.7386 24.2863 29.2758 23.4541C28.9984 23.3617 28.7631 23.2944 28.7463 23.3112C28.7295 23.3197 29.9146 27.1694 31.3772 31.8513C32.8398 36.5416 34.0502 40.4418 34.0754 40.5174C34.1174 40.6519 34.2687 40.6687 35.6304 40.6687H37.135L37.1266 36.2306C37.1182 33.793 37.0846 29.5734 37.0594 26.8584L37.0089 21.9075L36.6727 22.1765Z" fill="black"/>
</svg>
