<svg width="21" height="21" viewBox="0 0 21 21" fill="none" xmlns="http://www.w3.org/2000/svg">
<path d="M9.18225 0.158447C9.13049 0.210207 9.07873 0.299612 9.06461 0.356079C9.05049 0.417252 8.92815 0.887806 8.79169 1.40071L8.547 2.33711L8.26467 2.41711C7.84587 2.53945 7.39414 2.71826 6.97064 2.93472C6.7636 3.03824 6.57538 3.12294 6.55656 3.12294C6.53303 3.12294 6.10953 2.87825 5.60604 2.5818C4.9802 2.21006 4.65081 2.04066 4.552 2.04066C4.42965 2.04066 4.28378 2.16301 3.52619 2.9253C2.75918 3.6876 2.64155 3.82877 2.64155 3.95111C2.64155 4.05463 2.80624 4.37461 3.18739 5.00986L3.73323 5.92273L3.51207 6.36035C3.2815 6.8309 2.99917 7.52262 2.94741 7.76731C2.90976 7.94141 2.96623 7.92259 1.72397 8.23315C1.13577 8.37903 0.792269 8.48725 0.726391 8.54842C0.618164 8.64254 0.618164 8.65665 0.618164 9.90362C0.618164 11.0329 0.627575 11.1694 0.702864 11.2635C0.768741 11.3435 1.00402 11.4188 1.81337 11.6211C2.37804 11.7576 2.858 11.8847 2.88153 11.9035C2.90506 11.9176 2.92388 11.9552 2.92388 11.9929C2.92388 12.1388 3.22974 12.9622 3.44619 13.3951C3.57324 13.6492 3.67677 13.8704 3.67677 13.8892C3.67677 13.908 3.43208 14.3362 3.13563 14.835C2.75918 15.4703 2.59449 15.7903 2.59449 15.8891C2.59449 16.0161 2.71213 16.1526 3.47913 16.9196C4.42495 17.8701 4.45789 17.8889 4.75904 17.7336L4.90021 17.6584V16.4961C4.90021 15.2115 4.92373 15.0562 5.19665 14.5339C5.28135 14.3786 5.46487 14.1339 5.61074 13.988C5.97307 13.6257 6.35422 13.4422 7.03652 13.3104L7.17298 13.2822L7.03182 13.1316C6.95182 13.0469 6.80595 12.8634 6.70243 12.7222C5.33312 10.8447 5.52604 8.30374 7.15886 6.64739C7.75176 6.04037 8.50936 5.60746 9.37517 5.37218C9.94454 5.2169 11.0503 5.2169 11.6244 5.37218C13.3702 5.84744 14.5983 7.07559 15.0736 8.82135C15.2242 9.3766 15.2242 10.5436 15.0736 11.0847C14.8665 11.8376 14.5042 12.5293 14.029 13.061L13.836 13.2822L13.9678 13.3104C14.636 13.4422 15.0077 13.6163 15.3794 13.9833C15.53 14.1292 15.7182 14.3786 15.8029 14.5339C16.0759 15.0609 16.0994 15.2068 16.0994 16.5431V17.7572L16.2217 17.8042C16.5135 17.9172 16.5464 17.8983 17.4734 16.9666C18.2404 16.2043 18.3581 16.0632 18.3581 15.9408C18.3581 15.8373 18.1934 15.5173 17.8122 14.8821L17.2711 13.9739L17.5252 13.4516C17.671 13.1693 17.8546 12.7222 17.9393 12.4634C18.024 12.2046 18.0992 11.9835 18.104 11.9788C18.1134 11.9694 18.5792 11.8423 19.1439 11.7011C19.8685 11.5223 20.2026 11.4141 20.2779 11.3482C20.3814 11.2494 20.3814 11.2306 20.3814 10.0071C20.3814 9.30131 20.3626 8.72724 20.3344 8.68018C20.2732 8.56254 20.1509 8.52019 19.158 8.2755C18.1839 8.03552 18.0757 7.99788 18.0757 7.90377C18.0757 7.75789 17.8169 7.06618 17.5722 6.54857L17.3087 5.99332L17.8546 5.08044C18.2592 4.40755 18.4051 4.12522 18.4051 4.01228C18.4051 3.87112 18.311 3.76289 17.5205 2.97236C16.7817 2.22888 16.617 2.08772 16.4994 2.08772C16.41 2.08772 16.0523 2.27594 15.4453 2.63356L14.5277 3.1747L13.9348 2.89707C13.6102 2.74179 13.1631 2.55357 12.9326 2.48298C12.5373 2.35593 12.5185 2.34182 12.4761 2.18183C12.4526 2.09242 12.335 1.62658 12.2173 1.14661C12.0385 0.431368 11.982 0.257263 11.8832 0.167858C11.7656 0.0643349 11.7468 0.0643349 10.5186 0.0643349C9.34224 0.0643349 9.27165 0.0690403 9.18225 0.158447Z" fill="#ADADAD"/>
<path d="M9.84153 7.00994C8.74043 7.24522 7.78991 8.20515 7.55934 9.31095C7.11231 11.4473 8.99923 13.3342 11.1355 12.8872C12.4907 12.6048 13.5118 11.3437 13.5118 9.9462C13.5118 8.03575 11.7237 6.60527 9.84153 7.00994Z" fill="#ADADAD"/>
<path d="M6.82629 14.0589C6.36044 14.1859 5.96988 14.5153 5.73931 14.9764C5.63108 15.1929 5.63108 15.1976 5.61697 17.5269C5.60756 19.6208 5.61226 19.8749 5.67814 19.9408C5.74872 20.0067 6.20516 20.0161 10.5013 20.0161C14.7975 20.0161 15.2539 20.0067 15.3245 19.9408C15.3904 19.8749 15.3951 19.6208 15.3857 17.5269L15.3716 15.1929L15.2633 14.9717C15.0845 14.6188 14.8116 14.3412 14.4634 14.1718L14.1481 14.0165L10.5954 14.0071C7.88033 14.0024 6.99099 14.0118 6.82629 14.0589Z" fill="#ADADAD"/>
</svg>
