<svg width="21" height="22" viewBox="0 0 21 22" fill="none" xmlns="http://www.w3.org/2000/svg">
<path d="M8.92952 0.653296C8.68394 0.744867 8.64648 0.765678 8.38842 1.00293C8.05959 1.31095 7.87645 1.68556 7.79736 2.20585C7.74325 2.5763 7.61006 2.87599 7.40194 3.10492C7.04398 3.50451 5.58715 4.32865 5.01691 4.45769C4.67144 4.53677 4.56321 4.52428 4.0346 4.35779C3.83064 4.29119 3.55593 4.22459 3.43105 4.21211C2.90244 4.14967 2.28641 4.37028 1.97007 4.72408C1.7786 4.94052 0.758824 6.67206 0.629791 7.00088C0.525733 7.26727 0.517408 7.75011 0.613142 8.06645C0.708876 8.39111 0.975267 8.77405 1.28328 9.03211C1.61211 9.30683 1.83271 9.59403 1.91596 9.86874C2.06164 10.3433 2.06164 12.1081 1.91596 12.5826C1.83271 12.8573 1.61211 13.1445 1.28744 13.4151C0.983591 13.6731 0.758824 13.9853 0.638116 14.3266C0.517408 14.6596 0.513246 15.1549 0.629791 15.4505C0.762987 15.7793 1.78276 17.5108 1.97007 17.7273C2.08245 17.8521 2.24895 17.9728 2.42377 18.0603C2.69432 18.1935 2.71513 18.1976 3.22294 18.1976C3.69328 18.1935 3.76821 18.1851 4.01378 18.0811C4.60484 17.8355 4.92534 17.8563 5.61629 18.1976C6.18653 18.4765 7.03149 19.0259 7.29788 19.2923C7.56011 19.5545 7.66417 19.7627 7.76406 20.2288C7.91807 20.9573 8.28436 21.4942 8.79633 21.7439L9.02942 21.8605L10.428 21.873C11.7724 21.8855 11.8348 21.8813 12.0638 21.7939C12.6715 21.5691 13.0752 21.0155 13.2334 20.1914C13.3458 19.592 13.608 19.2715 14.4197 18.747C15.7641 17.8813 16.1387 17.7814 16.9837 18.0727C17.4082 18.2184 17.4499 18.2267 17.8494 18.2101C18.3989 18.1893 18.6944 18.0644 19.0107 17.7189C19.2189 17.4859 20.0763 16.054 20.3136 15.5337C20.5134 15.105 20.4925 14.6013 20.2594 14.106C20.1804 13.9312 20.0305 13.7481 19.685 13.4109C19.1731 12.9073 19.0773 12.7408 18.9983 12.1913C18.9483 11.8334 18.9483 10.618 18.9983 10.26C19.0773 9.71058 19.1731 9.54408 19.685 9.04044C20.2761 8.46187 20.4509 8.11639 20.4551 7.53783C20.4551 7.20068 20.351 6.93845 19.9265 6.19755C19.0982 4.74905 18.9774 4.59088 18.5612 4.38276C18.095 4.15383 17.5872 4.14551 16.9379 4.36611C16.4925 4.5118 16.1637 4.52845 15.8349 4.42023C15.506 4.31617 14.607 3.84998 14.1699 3.56694C13.4998 3.12157 13.3208 2.87599 13.1834 2.17255C13.1377 1.94362 13.0461 1.64394 12.9837 1.5149C12.8338 1.1944 12.4883 0.848927 12.1845 0.703243L11.9431 0.59086L10.5487 0.582535C9.25835 0.574211 9.13764 0.578373 8.92952 0.653296ZM11.1439 6.83439C13.633 7.209 15.3312 9.619 14.8317 12.0706C14.6444 12.9905 14.2906 13.644 13.608 14.3266C12.9212 15.0134 12.2761 15.3631 11.3354 15.5545C10.7859 15.6711 9.96595 15.6544 9.45398 15.5171C8.12203 15.1674 7.09393 14.3266 6.5112 13.1237C5.97009 11.9999 5.91598 10.8178 6.36135 9.64398C7.0856 7.70848 9.10018 6.52638 11.1439 6.83439Z" fill="#ADADAD"/>
<path d="M9.90344 7.95402C8.82539 8.1663 7.99292 8.79482 7.5309 9.748C7.26867 10.2891 7.20207 10.6013 7.20624 11.2256C7.20624 11.8167 7.29364 12.2079 7.51009 12.645C8.13444 13.8854 9.29157 14.568 10.6485 14.5014C11.1938 14.4764 11.4893 14.4015 11.943 14.1851C12.7588 13.798 13.3832 13.0612 13.6704 12.1622C13.7994 11.7501 13.8285 11.0258 13.737 10.5555C13.4872 9.3276 12.5465 8.32863 11.3519 8.01646C10.9315 7.90824 10.2822 7.8791 9.90344 7.95402Z" fill="#ADADAD"/>
</svg>
