<svg width="43" height="35" viewBox="0 0 43 35" fill="none" xmlns="http://www.w3.org/2000/svg">
<path d="M20.7277 0.514814C19.713 0.590919 18.8082 0.844599 17.7766 1.35196C15.6541 2.38359 14.0813 4.26927 13.371 6.63694C13.1596 7.33879 13.1342 7.51636 13.1342 8.87777C13.1258 10.1715 13.1511 10.4506 13.3203 11.0763C14.1405 14.0782 16.4236 16.3444 19.4255 17.1477C20.5501 17.4437 22.402 17.4606 23.5182 17.1815C28.634 15.9047 31.3399 10.4844 29.3021 5.59686C28.9046 4.64133 28.1605 3.59279 27.3064 2.78102C25.5138 1.08137 23.3237 0.328783 20.7277 0.514814Z" fill="black"/>
<path d="M8.94027 2.49341C6.27663 3.06841 4.16264 5.25005 3.69756 7.92214C3.54535 8.7762 3.62991 10.2729 3.86668 11.0339C4.56853 13.2494 6.20053 14.8645 8.43291 15.5748C8.97409 15.7439 9.24468 15.7693 10.2932 15.7693C11.2065 15.7693 11.6546 15.727 12.0605 15.6171C12.3649 15.5325 12.6271 15.4564 12.6355 15.4395C12.6524 15.4226 12.4918 15.1351 12.2719 14.7968C10.4962 12.0487 10.0818 8.59016 11.1388 5.39381C11.401 4.62431 11.8491 3.66879 12.2212 3.11069C12.3565 2.89929 12.4072 2.75554 12.348 2.69635C12.2043 2.5526 10.9782 2.36657 10.2256 2.37502C9.81969 2.37502 9.24468 2.43421 8.94027 2.49341Z" fill="black"/>
<path d="M31.349 2.50198C30.5288 2.67956 30.5457 2.66264 30.7486 2.98397C31.6703 4.37075 32.2961 6.26489 32.4398 8.07447C32.6258 10.5267 32.017 12.9536 30.7148 14.9238C30.5372 15.1859 30.4104 15.4058 30.4273 15.4227C30.588 15.5749 31.5604 15.7525 32.4483 15.7863C34.0465 15.854 35.2134 15.5326 36.5071 14.6701C38.452 13.3764 39.5936 11.051 39.4414 8.6833C39.3822 7.73623 39.2131 7.08512 38.8241 6.26489C37.8939 4.28619 36.1943 2.94169 34.0634 2.48507C33.3615 2.34132 32.0678 2.34132 31.349 2.50198Z" fill="black"/>
<path d="M8.77053 18.3146C5.04144 18.7797 1.90428 20.547 0.813454 22.8132C0.0185927 24.4621 0.238448 26.1702 1.39692 27.3033C2.20869 28.0898 3.51937 28.6817 5.23593 29.0115C5.69255 29.096 6.12381 29.1721 6.183 29.1721C6.2591 29.1721 6.30984 28.9776 6.35212 28.5379C6.47896 27.1596 7.13852 25.5445 8.11096 24.2592C9.54848 22.3481 12.2037 20.547 14.8335 19.6845C15.307 19.5323 15.696 19.3801 15.7044 19.3547C15.7129 19.211 14.0132 18.6867 12.7871 18.4584C12.136 18.34 9.39627 18.2385 8.77053 18.3146Z" fill="black"/>
<path d="M30.7577 18.3823C29.6077 18.5514 28.1195 18.9488 27.5191 19.2532C27.2739 19.3716 27.2739 19.3801 28.1533 19.676C32.2798 21.0713 35.3663 23.8364 36.3725 27.0327C36.5332 27.557 36.7615 28.7916 36.7615 29.1552C36.7615 29.2228 37.6916 29.0622 38.5795 28.8338C40.7189 28.3011 42.0465 27.3371 42.52 25.9842C42.7568 25.3331 42.7483 24.2507 42.52 23.5066C41.7843 21.1643 39.0869 19.2363 35.51 18.5091C34.4276 18.2892 31.8993 18.2216 30.7577 18.3823Z" fill="black"/>
<path d="M20.1461 21.1389C14.5567 21.5448 9.9228 24.4029 8.98419 28.0305C8.79816 28.7578 8.81507 29.9585 9.02647 30.635C9.77905 33.0619 12.5695 34.4402 17.7192 34.9222C18.9453 35.0321 23.8752 35.0406 25.2619 34.9222C31.3249 34.4317 34.2337 32.5968 34.2253 29.2651C34.2168 25.9757 30.8683 22.8724 26.0399 21.6547C24.2049 21.1981 22.0148 21.0036 20.1461 21.1389Z" fill="black"/>
</svg>
