<svg width="38" height="38" viewBox="0 0 38 38" fill="none" xmlns="http://www.w3.org/2000/svg">
<path d="M22.0746 0.774309C17.3561 1.21121 13.0065 3.72581 10.8705 7.25985C10.356 8.11424 9.9482 9.056 9.65693 10.0851C9.48217 10.7162 9.48217 10.7745 9.62781 10.7162C10.1133 10.5318 11.7832 10.1434 12.8026 9.97835C14.2881 9.74533 17.4046 9.72591 18.7736 9.93951C23.0649 10.6191 26.5019 12.3182 29.2592 15.1241C30.7544 16.6387 31.8224 18.2503 32.5214 20.0076C32.9195 21.0174 33.3175 22.697 33.3952 23.7067L33.4632 24.6582L35.3273 24.6291C37.4147 24.5999 37.4923 24.5708 37.7059 23.9106C37.803 23.6291 37.7836 23.5126 37.6186 23.163C37.5118 22.9397 37.269 22.5999 37.0943 22.4154C36.9292 22.231 36.4147 21.6387 35.9583 21.1047C35.502 20.5708 35.104 20.1144 35.0651 20.1047C34.9098 20.0368 34.9972 19.862 35.5991 19.027C36.8224 17.328 37.4729 15.6581 37.7059 13.6677C37.9001 11.9104 37.5215 9.80359 36.6962 8.13366C35.5214 5.75497 33.1428 3.48309 30.5214 2.24035C28.8708 1.45393 27.3077 1.03645 25.23 0.803436C23.8416 0.657803 23.4436 0.648094 22.0746 0.774309Z" fill="url(#paint0_linear_6491_8163)"/>
<path d="M15.3266 11.9979C12.7246 12.095 10.0741 12.7747 7.89929 13.9106C3.69533 16.0951 1.07393 19.6777 0.627322 23.8428C0.306928 26.7361 1.31665 29.9788 3.25843 32.3284C3.46232 32.5808 3.62737 32.8235 3.62737 32.8624C3.62737 32.9109 2.97688 33.6876 2.18075 34.6003C1.37491 35.5032 0.675867 36.3964 0.617613 36.5712C0.520524 36.8333 0.539942 36.9401 0.685575 37.2508C1.0448 37.9887 0.588487 37.9498 9.33621 37.9498C17.3461 37.9498 18.2878 37.911 19.8412 37.5518C24.1326 36.5518 28.1618 33.5226 29.9579 29.94C30.8608 28.1536 31.2492 26.3865 31.1715 24.4739C31.1133 22.8719 30.9385 22.1243 30.2977 20.5709C29.4045 18.4155 27.5986 16.2796 25.4724 14.8621C22.55 12.9106 18.8703 11.8717 15.3266 11.9979ZM10.1809 22.6972C10.9188 23.037 11.4916 23.9205 11.4916 24.6972C11.4916 25.4739 10.9188 26.3574 10.1809 26.6972C9.35562 27.0759 8.25852 26.8623 7.64686 26.1924C7.28763 25.804 7.02549 25.1632 7.02549 24.6972C7.02549 24.2312 7.28763 23.5904 7.64686 23.202C8.06434 22.7554 8.61775 22.5127 9.25854 22.5127C9.57893 22.5127 9.94787 22.5904 10.1809 22.6972ZM16.7829 22.6972C18.9383 23.7069 18.2587 26.872 15.88 26.8817C14.5984 26.8817 13.7246 25.9982 13.7246 24.6972C13.7246 23.736 14.1809 23.0176 15.0353 22.6486C15.4625 22.4641 16.3266 22.4836 16.7829 22.6972ZM23.7054 22.8428C23.9287 22.9787 24.2297 23.2797 24.3753 23.5127C24.618 23.8719 24.6471 24.0176 24.6471 24.6972C24.6471 25.3768 24.618 25.5225 24.3753 25.8817C24.2297 26.1147 23.9287 26.4157 23.6957 26.5613C23.3364 26.804 23.1908 26.8332 22.5112 26.8332C21.8316 26.8332 21.6859 26.804 21.3267 26.5613C20.5112 26.037 20.1422 24.9885 20.4238 23.9884C20.5597 23.4836 21.2296 22.7651 21.7053 22.6195C22.2782 22.4447 23.2394 22.5515 23.7054 22.8428Z" fill="url(#paint1_linear_6491_8163)"/>
<defs>
<linearGradient id="paint0_linear_6491_8163" x1="23.6433" y1="24.6582" x2="23.6433" y2="0.686409" gradientUnits="userSpaceOnUse">
<stop stop-color="#FF295D"/>
<stop offset="0.485577" stop-color="#E31B95"/>
<stop offset="1" stop-color="#C817AE"/>
</linearGradient>
<linearGradient id="paint1_linear_6491_8163" x1="15.8694" y1="37.9502" x2="15.8694" y2="11.9877" gradientUnits="userSpaceOnUse">
<stop stop-color="#FF295D"/>
<stop offset="0.485577" stop-color="#E31B95"/>
<stop offset="1" stop-color="#C817AE"/>
</linearGradient>
</defs>
</svg>
