<svg width="20" height="20" viewBox="0 0 20 20" fill="none" xmlns="http://www.w3.org/2000/svg">
<path d="M9.14422 14.383C9.14422 15.9591 9.14472 17.5346 9.14372 19.1106C9.14322 19.4694 9.03275 19.5456 8.70132 19.4127C6.01503 18.3383 3.32924 17.2634 0.643451 16.187C0.246828 16.0282 0.149787 15.8819 0.149787 15.4525C0.14929 12.3258 0.14929 9.19906 0.149787 6.07186C0.149787 5.69464 0.272706 5.61502 0.626531 5.76431C3.16203 6.83425 5.69753 7.90518 8.23303 8.97512C8.44702 9.06519 8.66001 9.15825 8.87748 9.23887C9.07654 9.31252 9.1487 9.43992 9.1477 9.6549C9.14074 11.2309 9.14422 12.807 9.14422 14.383Z" fill="#ADADAD"/>
<path d="M19.2963 10.8134C19.2963 12.3561 19.2968 13.8988 19.2958 15.4415C19.2958 15.8854 19.2038 16.0272 18.7897 16.193C16.1885 17.234 13.5864 18.2726 10.9842 19.3122C10.8687 19.3585 10.7567 19.4147 10.6383 19.4505C10.4253 19.5152 10.3193 19.4396 10.3034 19.2216C10.2984 19.1554 10.3014 19.0888 10.3014 19.0226C10.3014 15.9287 10.3049 12.8353 10.2949 9.74199C10.2939 9.45684 10.385 9.31202 10.6473 9.20204C13.3704 8.06393 16.0885 6.91487 18.8081 5.76929C19.1759 5.61452 19.2953 5.69116 19.2953 6.08629C19.2968 7.66183 19.2963 9.23738 19.2963 10.8134Z" fill="#ADADAD"/>
<path d="M9.71665 0.607238C10.064 0.613209 10.3417 0.816746 10.6383 0.954594C13.0892 2.09271 15.5351 3.24028 17.983 4.38486C18.0054 4.39531 18.0283 4.40526 18.0507 4.41621C18.1438 4.4615 18.2254 4.51972 18.2294 4.63468C18.2338 4.76357 18.1443 4.82727 18.0422 4.87205C17.6695 5.03379 17.2968 5.19403 16.922 5.35128C14.599 6.32717 12.2755 7.30106 9.95403 8.27943C9.79777 8.34561 9.6644 8.35158 9.50416 8.2844C6.83927 7.15973 4.17239 6.04052 1.50651 4.91784C1.38011 4.86459 1.22186 4.82478 1.21738 4.64761C1.2129 4.46846 1.37016 4.42815 1.49556 4.36993C4.04848 3.17757 6.60189 1.98621 9.15581 0.79485C9.33496 0.710748 9.50465 0.596787 9.71665 0.607238Z" fill="#ADADAD"/>
</svg>
