<svg width="19" height="20" viewBox="0 0 19 20" fill="none" xmlns="http://www.w3.org/2000/svg">
<path d="M1.71651 1.02425C1.19199 1.16517 0.604834 1.63489 0.354316 2.12026C0.0959699 2.61347 0.107713 2.28075 0.107713 8.06615C0.107713 13.8907 0.0881413 13.4679 0.369974 14.0042C0.616577 14.4778 1.10196 14.8849 1.63039 15.065L1.88874 15.1511L5.77568 15.1628C9.00892 15.1707 9.6587 15.1628 9.6587 15.1198C9.6587 15.0924 9.63522 14.9789 9.6039 14.8732C9.45907 14.3878 9.40818 13.9729 9.40427 13.3114C9.40427 12.5715 9.4395 12.3171 9.64696 11.6908C10.058 10.4187 11.0483 9.29133 12.2617 8.71593C12.9193 8.40278 13.5026 8.25795 14.2894 8.2188L14.7904 8.1914L14.7787 5.46702L14.7669 2.74264L14.6612 2.45298C14.4029 1.74449 13.8196 1.20431 13.119 1.02034C12.7823 0.934219 2.04531 0.934219 1.71651 1.02425ZM10.6764 4.05003C10.6764 6.47692 10.6764 6.51215 10.5942 6.61393C10.5473 6.67655 10.4768 6.7157 10.4142 6.7157C10.3594 6.7157 9.66653 6.50432 8.87583 6.24598L7.43536 5.77626L5.99488 6.24598C5.20027 6.50432 4.51134 6.7157 4.46046 6.7157C4.41349 6.7157 4.32737 6.67264 4.27648 6.61784L4.17863 6.5239V4.05395V1.58791H7.42753H10.6764V4.05003Z" fill="#ADADAD"/>
<path d="M13.8862 8.82952C12.434 9.00175 11.0914 9.95294 10.4298 11.276C9.79964 12.5403 9.82704 14.2117 10.5003 15.6209C11.0092 16.6817 11.8468 17.6055 13.0172 18.3962C13.577 18.7719 14.2659 19.1242 14.4538 19.1242C14.72 19.1242 15.8121 18.4901 16.4853 17.946C17.323 17.2728 18.0628 16.3568 18.4308 15.5348C18.603 15.1551 18.7674 14.6032 18.8379 14.1609C18.9318 13.6089 18.9044 12.6264 18.783 12.1841C18.5834 11.4286 18.2272 10.775 17.7301 10.2387C16.7515 9.1779 15.3306 8.66121 13.8862 8.82952ZM14.8061 11.7888C15.2601 11.9062 15.6163 12.1998 15.8199 12.6264C15.9295 12.8574 15.9412 12.9161 15.9412 13.2723C15.9412 13.6168 15.9295 13.6911 15.8356 13.8869C15.6907 14.2 15.4167 14.4818 15.1036 14.6345C14.8648 14.7519 14.8178 14.7597 14.4538 14.7597C14.1093 14.7597 14.035 14.748 13.8353 14.6541C13.3969 14.4466 13.119 14.1295 12.9781 13.6676C12.7785 13.01 13.0994 12.2624 13.7257 11.9297C14.1093 11.7222 14.4107 11.6831 14.8061 11.7888Z" fill="#ADADAD"/>
</svg>
