<svg width="44" height="44" viewBox="0 0 44 44" fill="none" xmlns="http://www.w3.org/2000/svg">
<path d="M14.2092 0.230249C8.32857 0.443907 5.48998 1.26801 3.41445 3.34354C2.24443 4.50339 1.47119 6.01934 0.982832 8.08469C0.748827 9.08176 0.565692 10.2925 0.647086 10.2925C0.667434 10.2925 0.972658 10.0076 1.33893 9.66168C3.56707 7.53529 5.88677 6.41613 8.97971 5.96847C12.154 5.50046 31.8207 5.50046 34.9848 5.96847C38.1185 6.41613 40.4992 7.57598 42.646 9.67186C43.0021 10.0178 43.3073 10.2721 43.3378 10.2518C43.409 10.1704 43.175 8.76636 42.9308 7.79981C42.3 5.27663 41.0995 3.4758 39.2173 2.2549C37.2435 0.962788 34.6084 0.413383 29.389 0.220075C26.4691 0.108159 17.2513 0.118334 14.2092 0.230249Z" fill="black" fill-opacity="0.28"/>
<path d="M10.3632 8.97996C8.50132 9.13257 7.17868 9.47849 5.93743 10.1398C3.63807 11.3505 1.57272 13.7923 0.891054 16.0917C0.351825 17.9129 0.178864 21.1482 0.250083 27.8937C0.311128 32.9808 0.392521 34.2525 0.728268 35.7176C1.30819 38.1391 2.90554 40.3672 5.13367 41.8323C6.55805 42.7683 7.7586 43.1753 10.0885 43.4703C11.3297 43.6331 28.8191 43.7145 31.7594 43.5721C35.3305 43.3991 36.7854 43.0837 38.3726 42.1375C41.1298 40.4995 42.8798 37.9966 43.4088 34.9749C43.6326 33.6319 43.7649 30.5491 43.7649 26.1641C43.7547 20.3648 43.5818 17.7399 43.0934 16.0917C42.717 14.8097 41.8623 13.3955 40.7737 12.2459C39.0543 10.4349 37.2636 9.50901 34.5878 9.06135C33.7027 8.90874 12.0114 8.83752 10.3632 8.97996ZM22.8977 18.4724C23.1012 18.6149 24.5154 19.9884 26.0314 21.5145C28.3409 23.8342 28.8089 24.3531 28.9107 24.7092C29.0836 25.2789 28.931 25.7978 28.463 26.2557C28.0865 26.6219 27.4659 26.7644 26.9063 26.6219C26.7334 26.5812 26.0517 25.9911 25.1259 25.0755L23.6303 23.59L23.5997 28.3719L23.5692 33.1436L23.2945 33.5607C22.6332 34.5679 21.1681 34.5171 20.5882 33.459C20.4356 33.1639 20.4152 32.6654 20.3847 28.3617L20.3542 23.59L18.8586 25.0755C17.9328 25.9911 17.2511 26.5812 17.0781 26.6219C15.8369 26.9373 14.7279 25.869 15.0636 24.7092C15.1756 24.3531 15.6537 23.824 18.1057 21.3619C19.8251 19.6425 21.1681 18.3707 21.3818 18.2791C21.8498 18.0756 22.4195 18.1469 22.8977 18.4724Z" fill="black" fill-opacity="0.28"/>
</svg>
